<?xml version="1.0" encoding="UTF-8" standalone="no"?><svg xmlns="http://www.w3.org/2000/svg" xmlns:xlink="http://www.w3.org/1999/xlink" clip-rule="evenodd" stroke-miterlimit="4.00" viewBox="0 0 318 24"><desc>SVG generated by Keynote</desc><defs></defs><g transform="matrix(1.00, 0.00, -0.00, -1.00, 0.0, 24.0)"><text xml:space="preserve" font-family="Helvetica-LightOblique" font-style="italic" font-size="28.0" fill="#FEFFFF" transform="matrix(1.00, 0.00, -0.00, -1.00, -2.0, 2.0)">U</text><text xml:space="preserve" font-family="Helvetica-LightOblique" font-style="italic" font-size="28.0" fill="#FEFFFF" transform="matrix(1.00, 0.00, -0.00, -1.00, 18.2, 2.0)">n</text><text xml:space="preserve" font-family="Helvetica-LightOblique" font-style="italic" font-size="28.0" fill="#FEFFFF" transform="matrix(1.00, 0.00, -0.00, -1.00, 33.8, 2.0)">i</text><text xml:space="preserve" font-family="Helvetica-LightOblique" font-style="italic" font-size="28.0" fill="#FEFFFF" transform="matrix(1.00, 0.00, -0.00, -1.00, 40.0, 2.0)">v</text><text xml:space="preserve" font-family="Helvetica-LightOblique" font-style="italic" font-size="28.0" fill="#FEFFFF" transform="matrix(1.00, 0.00, -0.00, -1.00, 54.0, 2.0)">e</text><text xml:space="preserve" font-family="Helvetica-LightOblique" font-style="italic" font-size="28.0" fill="#FEFFFF" transform="matrix(1.00, 0.00, -0.00, -1.00, 69.6, 2.0)">r</text><text xml:space="preserve" font-family="Helvetica-LightOblique" font-style="italic" font-size="28.0" fill="#FEFFFF" transform="matrix(1.00, 0.00, -0.00, -1.00, 78.9, 2.0)">s</text><text xml:space="preserve" font-family="Helvetica-LightOblique" font-style="italic" font-size="28.0" fill="#FEFFFF" transform="matrix(1.00, 0.00, -0.00, -1.00, 92.9, 2.0)">i</text><text xml:space="preserve" font-family="Helvetica-LightOblique" font-style="italic" font-size="28.0" fill="#FEFFFF" transform="matrix(1.00, 0.00, -0.00, -1.00, 99.1, 2.0)">t</text><text xml:space="preserve" font-family="Helvetica-LightOblique" font-style="italic" font-size="28.0" fill="#FEFFFF" transform="matrix(1.00, 0.00, -0.00, -1.00, 106.9, 2.0)">a</text><text xml:space="preserve" font-family="Helvetica-LightOblique" font-style="italic" font-size="28.0" fill="#FEFFFF" transform="matrix(1.00, 0.00, -0.00, -1.00, 122.5, 2.0)">t</text><text xml:space="preserve" font-family="Helvetica-LightOblique" font-style="italic" font-size="28.0" fill="#FEFFFF" transform="matrix(1.00, 0.00, -0.00, -1.00, 130.2, 2.0)"> </text><text xml:space="preserve" font-family="Helvetica-LightOblique" font-style="italic" font-size="28.0" fill="#FEFFFF" transform="matrix(1.00, 0.00, -0.00, -1.00, 138.0, 2.0)">P</text><text xml:space="preserve" font-family="Helvetica-LightOblique" font-style="italic" font-size="28.0" fill="#FEFFFF" transform="matrix(1.00, 0.00, -0.00, -1.00, 155.1, 2.0)">o</text><text xml:space="preserve" font-family="Helvetica-LightOblique" font-style="italic" font-size="28.0" fill="#FEFFFF" transform="matrix(1.00, 0.00, -0.00, -1.00, 170.7, 2.0)">l</text><text xml:space="preserve" font-family="Helvetica-LightOblique" font-style="italic" font-size="28.0" fill="#FEFFFF" transform="matrix(1.00, 0.00, -0.00, -1.00, 176.9, 2.0)">i</text><text xml:space="preserve" font-family="Helvetica-LightOblique" font-style="italic" font-size="28.0" fill="#FEFFFF" transform="matrix(1.00, 0.00, -0.00, -1.00, 183.1, 2.0)">t</text><text xml:space="preserve" font-family="Helvetica-LightOblique" font-style="italic" font-size="28.0" fill="#FEFFFF" transform="matrix(1.00, 0.00, -0.00, -1.00, 190.9, 2.0)">è</text><text xml:space="preserve" font-family="Helvetica-LightOblique" font-style="italic" font-size="28.0" fill="#FEFFFF" transform="matrix(1.00, 0.00, -0.00, -1.00, 206.5, 2.0)">c</text><text xml:space="preserve" font-family="Helvetica-LightOblique" font-style="italic" font-size="28.0" fill="#FEFFFF" transform="matrix(1.00, 0.00, -0.00, -1.00, 222.1, 2.0)">n</text><text xml:space="preserve" font-family="Helvetica-LightOblique" font-style="italic" font-size="28.0" fill="#FEFFFF" transform="matrix(1.00, 0.00, -0.00, -1.00, 237.6, 2.0)">i</text><text xml:space="preserve" font-family="Helvetica-LightOblique" font-style="italic" font-size="28.0" fill="#FEFFFF" transform="matrix(1.00, 0.00, -0.00, -1.00, 243.8, 2.0)">c</text><text xml:space="preserve" font-family="Helvetica-LightOblique" font-style="italic" font-size="28.0" fill="#FEFFFF" transform="matrix(1.00, 0.00, -0.00, -1.00, 259.4, 2.0)">a</text><text xml:space="preserve" font-family="Helvetica-LightOblique" font-style="italic" font-size="28.0" fill="#FEFFFF" transform="matrix(1.00, 0.00, -0.00, -1.00, 275.0, 2.0)"> </text><text xml:space="preserve" font-family="Helvetica-LightOblique" font-style="italic" font-size="28.0" fill="#FEFFFF" transform="matrix(1.00, 0.00, -0.00, -1.00, 282.8, 2.0)">d</text><text xml:space="preserve" font-family="Helvetica-LightOblique" font-style="italic" font-size="28.0" fill="#FEFFFF" transform="matrix(1.00, 0.00, -0.00, -1.00, 299.9, 2.0)">e</text></g></svg>