<?xml version="1.0" encoding="UTF-8" standalone="no"?><svg xmlns="http://www.w3.org/2000/svg" xmlns:xlink="http://www.w3.org/1999/xlink" clip-rule="evenodd" stroke-miterlimit="4.00" viewBox="0 0 263 26"><desc>SVG generated by Keynote</desc><defs></defs><g transform="matrix(1.00, 0.00, -0.00, -1.00, 0.0, 26.0)"><text xml:space="preserve" font-family="Helvetica-Light" font-size="24.6" fill="#FEFFFF" transform="matrix(1.00, 0.00, -0.00, -1.00, 0.0, 7.0)">c</text><text xml:space="preserve" font-family="Helvetica-Light" font-size="24.6" fill="#FEFFFF" transform="matrix(1.00, 0.00, -0.00, -1.00, 13.7, 7.0)">o</text><text xml:space="preserve" font-family="Helvetica-Light" font-size="24.6" fill="#FEFFFF" transform="matrix(1.00, 0.00, -0.00, -1.00, 27.4, 7.0)">n</text><text xml:space="preserve" font-family="Helvetica-Light" font-size="24.6" fill="#FEFFFF" transform="matrix(1.00, 0.00, -0.00, -1.00, 41.1, 7.0)">d</text><text xml:space="preserve" font-family="Helvetica-Light" font-size="24.6" fill="#FEFFFF" transform="matrix(1.00, 0.00, -0.00, -1.00, 56.2, 7.0)">u</text><text xml:space="preserve" font-family="Helvetica-Light" font-size="24.6" fill="#FEFFFF" transform="matrix(1.00, 0.00, -0.00, -1.00, 69.9, 7.0)">c</text><text xml:space="preserve" font-family="Helvetica-Light" font-size="24.6" fill="#FEFFFF" transform="matrix(1.00, 0.00, -0.00, -1.00, 83.6, 7.0)">t</text><text xml:space="preserve" font-family="Helvetica-Light" font-size="24.6" fill="#FEFFFF" transform="matrix(1.00, 0.00, -0.00, -1.00, 90.4, 7.0)">o</text><text xml:space="preserve" font-family="Helvetica-Light" font-size="24.6" fill="#FEFFFF" transform="matrix(1.00, 0.00, -0.00, -1.00, 104.1, 7.0)">r</text><text xml:space="preserve" font-family="Helvetica-Light" font-size="24.6" fill="#FEFFFF" transform="matrix(1.00, 0.00, -0.00, -1.00, 111.9, 7.0)">e</text><text xml:space="preserve" font-family="Helvetica-Light" font-size="24.6" fill="#FEFFFF" transform="matrix(1.00, 0.00, -0.00, -1.00, 125.6, 7.0)">s</text><text xml:space="preserve" font-family="Helvetica-Light" font-size="24.6" fill="#FEFFFF" transform="matrix(1.00, 0.00, -0.00, -1.00, 137.9, 7.0)"> </text><text xml:space="preserve" font-family="Helvetica-Light" font-size="24.6" fill="#FEFFFF" transform="matrix(1.00, 0.00, -0.00, -1.00, 144.7, 7.0)">r</text><text xml:space="preserve" font-family="Helvetica-Light" font-size="24.6" fill="#FEFFFF" transform="matrix(1.00, 0.00, -0.00, -1.00, 152.5, 7.0)">e</text><text xml:space="preserve" font-family="Helvetica-Light" font-size="24.6" fill="#FEFFFF" transform="matrix(1.00, 0.00, -0.00, -1.00, 166.2, 7.0)">s</text><text xml:space="preserve" font-family="Helvetica-Light" font-size="24.6" fill="#FEFFFF" transform="matrix(1.00, 0.00, -0.00, -1.00, 178.5, 7.0)">p</text><text xml:space="preserve" font-family="Helvetica-Light" font-size="24.6" fill="#FEFFFF" transform="matrix(1.00, 0.00, -0.00, -1.00, 193.6, 7.0)">e</text><text xml:space="preserve" font-family="Helvetica-Light" font-size="24.6" fill="#FEFFFF" transform="matrix(1.00, 0.00, -0.00, -1.00, 207.3, 7.0)">c</text><text xml:space="preserve" font-family="Helvetica-Light" font-size="24.6" fill="#FEFFFF" transform="matrix(1.00, 0.00, -0.00, -1.00, 221.0, 7.0)">t</text><text xml:space="preserve" font-family="Helvetica-Light" font-size="24.6" fill="#FEFFFF" transform="matrix(1.00, 0.00, -0.00, -1.00, 227.8, 7.0)">o</text><text xml:space="preserve" font-family="Helvetica-Light" font-size="24.6" fill="#FEFFFF" transform="matrix(1.00, 0.00, -0.00, -1.00, 241.5, 7.0)"> </text><text xml:space="preserve" font-family="Helvetica-Light" font-size="24.6" fill="#FEFFFF" transform="matrix(1.00, 0.00, -0.00, -1.00, 248.4, 7.0)">a</text></g></svg>