<?xml version="1.0" encoding="UTF-8" standalone="no"?><svg xmlns="http://www.w3.org/2000/svg" xmlns:xlink="http://www.w3.org/1999/xlink" clip-rule="evenodd" stroke-miterlimit="4.00" viewBox="0 0 332 25"><desc>SVG generated by Keynote</desc><defs></defs><g transform="matrix(1.00, 0.00, -0.00, -1.00, 0.0, 25.0)"><text xml:space="preserve" font-family="Helvetica-Light" font-size="24.6" fill="#FEFFFF" transform="matrix(1.00, 0.00, -0.00, -1.00, 0.0, 6.0)">d</text><text xml:space="preserve" font-family="Helvetica-Light" font-size="24.6" fill="#FEFFFF" transform="matrix(1.00, 0.00, -0.00, -1.00, 15.1, 6.0)">e</text><text xml:space="preserve" font-family="Helvetica-Light" font-size="24.6" fill="#FEFFFF" transform="matrix(1.00, 0.00, -0.00, -1.00, 28.8, 6.0)">b</text><text xml:space="preserve" font-family="Helvetica-Light" font-size="24.6" fill="#FEFFFF" transform="matrix(1.00, 0.00, -0.00, -1.00, 43.8, 6.0)">e</text><text xml:space="preserve" font-family="Helvetica-Light" font-size="24.6" fill="#FEFFFF" transform="matrix(1.00, 0.00, -0.00, -1.00, 57.5, 6.0)"> </text><text xml:space="preserve" font-family="Helvetica-Light" font-size="24.6" fill="#FEFFFF" transform="matrix(1.00, 0.00, -0.00, -1.00, 64.4, 6.0)">r</text><text xml:space="preserve" font-family="Helvetica-Light" font-size="24.6" fill="#FEFFFF" transform="matrix(1.00, 0.00, -0.00, -1.00, 72.1, 6.0)">e</text><text xml:space="preserve" font-family="Helvetica-Light" font-size="24.6" fill="#FEFFFF" transform="matrix(1.00, 0.00, -0.00, -1.00, 85.8, 6.0)">c</text><text xml:space="preserve" font-family="Helvetica-Light" font-size="24.6" fill="#FEFFFF" transform="matrix(1.00, 0.00, -0.00, -1.00, 99.5, 6.0)">o</text><text xml:space="preserve" font-family="Helvetica-Light" font-size="24.6" fill="#FEFFFF" transform="matrix(1.00, 0.00, -0.00, -1.00, 113.2, 6.0)">g</text><text xml:space="preserve" font-family="Helvetica-Light" font-size="24.6" fill="#FEFFFF" transform="matrix(1.00, 0.00, -0.00, -1.00, 128.3, 6.0)">e</text><text xml:space="preserve" font-family="Helvetica-Light" font-size="24.6" fill="#FEFFFF" transform="matrix(1.00, 0.00, -0.00, -1.00, 142.0, 6.0)">r</text><text xml:space="preserve" font-family="Helvetica-Light" font-size="24.6" fill="#FEFFFF" transform="matrix(1.00, 0.00, -0.00, -1.00, 150.2, 6.0)"> </text><text xml:space="preserve" font-family="Helvetica-Light" font-size="24.6" fill="#FEFFFF" transform="matrix(1.00, 0.00, -0.00, -1.00, 157.0, 6.0)">e</text><text xml:space="preserve" font-family="Helvetica-Light" font-size="24.6" fill="#FEFFFF" transform="matrix(1.00, 0.00, -0.00, -1.00, 170.7, 6.0)">n</text><text xml:space="preserve" font-family="Helvetica-Light" font-size="24.6" fill="#FEFFFF" transform="matrix(1.00, 0.00, -0.00, -1.00, 184.4, 6.0)"> </text><text xml:space="preserve" font-family="Helvetica-Light" font-size="24.6" fill="#FEFFFF" transform="matrix(1.00, 0.00, -0.00, -1.00, 191.3, 6.0)">c</text><text xml:space="preserve" font-family="Helvetica-Light" font-size="24.6" fill="#FEFFFF" transform="matrix(1.00, 0.00, -0.00, -1.00, 205.0, 6.0)">a</text><text xml:space="preserve" font-family="Helvetica-Light" font-size="24.6" fill="#FEFFFF" transform="matrix(1.00, 0.00, -0.00, -1.00, 218.7, 6.0)">d</text><text xml:space="preserve" font-family="Helvetica-Light" font-size="24.6" fill="#FEFFFF" transform="matrix(1.00, 0.00, -0.00, -1.00, 233.7, 6.0)">a</text><text xml:space="preserve" font-family="Helvetica-Light" font-size="24.6" fill="#FEFFFF" transform="matrix(1.00, 0.00, -0.00, -1.00, 247.4, 6.0)"> </text><text xml:space="preserve" font-family="Helvetica-Light" font-size="24.6" fill="#FEFFFF" transform="matrix(1.00, 0.00, -0.00, -1.00, 254.3, 6.0)">u</text><text xml:space="preserve" font-family="Helvetica-Light" font-size="24.6" fill="#FEFFFF" transform="matrix(1.00, 0.00, -0.00, -1.00, 268.0, 6.0)">n</text><text xml:space="preserve" font-family="Helvetica-Light" font-size="24.6" fill="#FEFFFF" transform="matrix(1.00, 0.00, -0.00, -1.00, 281.7, 6.0)">a</text><text xml:space="preserve" font-family="Helvetica-Light" font-size="24.6" fill="#FEFFFF" transform="matrix(1.00, 0.00, -0.00, -1.00, 295.4, 6.0)"> </text><text xml:space="preserve" font-family="Helvetica-Light" font-size="24.6" fill="#FEFFFF" transform="matrix(1.00, 0.00, -0.00, -1.00, 302.2, 6.0)">d</text><text xml:space="preserve" font-family="Helvetica-Light" font-size="24.6" fill="#FEFFFF" transform="matrix(1.00, 0.00, -0.00, -1.00, 317.3, 6.0)">e</text></g></svg>