<?xml version="1.0" encoding="UTF-8" standalone="no"?><svg xmlns="http://www.w3.org/2000/svg" xmlns:xlink="http://www.w3.org/1999/xlink" clip-rule="evenodd" stroke-miterlimit="4.00" viewBox="0 0 251 21"><desc>SVG generated by Keynote</desc><defs></defs><g transform="matrix(1.00, 0.00, -0.00, -1.00, 0.0, 21.0)"><text xml:space="preserve" font-family="Helvetica-Light" font-size="24.6" fill="#FEFFFF" transform="matrix(1.00, 0.00, -0.00, -1.00, 0.0, 2.0)">c</text><text xml:space="preserve" font-family="Helvetica-Light" font-size="24.6" fill="#FEFFFF" transform="matrix(1.00, 0.00, -0.00, -1.00, 13.7, 2.0)">o</text><text xml:space="preserve" font-family="Helvetica-Light" font-size="24.6" fill="#FEFFFF" transform="matrix(1.00, 0.00, -0.00, -1.00, 27.4, 2.0)">n</text><text xml:space="preserve" font-family="Helvetica-Light" font-size="24.6" fill="#FEFFFF" transform="matrix(1.00, 0.00, -0.00, -1.00, 41.1, 2.0)">d</text><text xml:space="preserve" font-family="Helvetica-Light" font-size="24.6" fill="#FEFFFF" transform="matrix(1.00, 0.00, -0.00, -1.00, 56.2, 2.0)">i</text><text xml:space="preserve" font-family="Helvetica-Light" font-size="24.6" fill="#FEFFFF" transform="matrix(1.00, 0.00, -0.00, -1.00, 61.6, 2.0)">c</text><text xml:space="preserve" font-family="Helvetica-Light" font-size="24.6" fill="#FEFFFF" transform="matrix(1.00, 0.00, -0.00, -1.00, 75.3, 2.0)">i</text><text xml:space="preserve" font-family="Helvetica-Light" font-size="24.6" fill="#FEFFFF" transform="matrix(1.00, 0.00, -0.00, -1.00, 80.8, 2.0)">o</text><text xml:space="preserve" font-family="Helvetica-Light" font-size="24.6" fill="#FEFFFF" transform="matrix(1.00, 0.00, -0.00, -1.00, 94.5, 2.0)">n</text><text xml:space="preserve" font-family="Helvetica-Light" font-size="24.6" fill="#FEFFFF" transform="matrix(1.00, 0.00, -0.00, -1.00, 108.2, 2.0)">e</text><text xml:space="preserve" font-family="Helvetica-Light" font-size="24.6" fill="#FEFFFF" transform="matrix(1.00, 0.00, -0.00, -1.00, 121.9, 2.0)">s</text><text xml:space="preserve" font-family="Helvetica-Light" font-size="24.6" fill="#FEFFFF" transform="matrix(1.00, 0.00, -0.00, -1.00, 134.2, 2.0)"> </text><text xml:space="preserve" font-family="Helvetica-Light" font-size="24.6" fill="#FEFFFF" transform="matrix(1.00, 0.00, -0.00, -1.00, 141.1, 2.0)">d</text><text xml:space="preserve" font-family="Helvetica-Light" font-size="24.6" fill="#FEFFFF" transform="matrix(1.00, 0.00, -0.00, -1.00, 156.1, 2.0)">e</text><text xml:space="preserve" font-family="Helvetica-Light" font-size="24.6" fill="#FEFFFF" transform="matrix(1.00, 0.00, -0.00, -1.00, 169.8, 2.0)"> </text><text xml:space="preserve" font-family="Helvetica-Light" font-size="24.6" fill="#FEFFFF" transform="matrix(1.00, 0.00, -0.00, -1.00, 176.7, 2.0)">t</text><text xml:space="preserve" font-family="Helvetica-Light" font-size="24.6" fill="#FEFFFF" transform="matrix(1.00, 0.00, -0.00, -1.00, 183.5, 2.0)">r</text><text xml:space="preserve" font-family="Helvetica-Light" font-size="24.6" fill="#FEFFFF" transform="matrix(1.00, 0.00, -0.00, -1.00, 191.7, 2.0)">á</text><text xml:space="preserve" font-family="Helvetica-Light" font-size="24.6" fill="#FEFFFF" transform="matrix(1.00, 0.00, -0.00, -1.00, 205.4, 2.0)">ﬁ</text><text xml:space="preserve" font-family="Helvetica-Light" font-size="24.6" fill="#FEFFFF" transform="matrix(1.00, 0.00, -0.00, -1.00, 217.7, 2.0)">c</text><text xml:space="preserve" font-family="Helvetica-Light" font-size="24.6" fill="#FEFFFF" transform="matrix(1.00, 0.00, -0.00, -1.00, 231.4, 2.0)">o</text><text xml:space="preserve" font-family="Helvetica-Light" font-size="24.6" fill="#FEFFFF" transform="matrix(1.00, 0.00, -0.00, -1.00, 245.1, 2.0)">.</text></g></svg>