<?xml version="1.0" encoding="UTF-8" standalone="no"?><svg xmlns="http://www.w3.org/2000/svg" xmlns:xlink="http://www.w3.org/1999/xlink" clip-rule="evenodd" stroke-miterlimit="4.00" viewBox="0 0 284 21"><desc>SVG generated by Keynote</desc><defs></defs><g transform="matrix(1.00, 0.00, -0.00, -1.00, 0.0, 21.0)"><text xml:space="preserve" font-family="Helvetica-Light" font-size="24.6" fill="#FEFFFF" transform="matrix(1.00, 0.00, -0.00, -1.00, 0.0, 2.0)">o</text><text xml:space="preserve" font-family="Helvetica-Light" font-size="24.6" fill="#FEFFFF" transform="matrix(1.00, 0.00, -0.00, -1.00, 13.7, 2.0)">r</text><text xml:space="preserve" font-family="Helvetica-Light" font-size="24.6" fill="#FEFFFF" transform="matrix(1.00, 0.00, -0.00, -1.00, 21.9, 2.0)">i</text><text xml:space="preserve" font-family="Helvetica-Light" font-size="24.6" fill="#FEFFFF" transform="matrix(1.00, 0.00, -0.00, -1.00, 27.4, 2.0)">e</text><text xml:space="preserve" font-family="Helvetica-Light" font-size="24.6" fill="#FEFFFF" transform="matrix(1.00, 0.00, -0.00, -1.00, 41.1, 2.0)">n</text><text xml:space="preserve" font-family="Helvetica-Light" font-size="24.6" fill="#FEFFFF" transform="matrix(1.00, 0.00, -0.00, -1.00, 54.8, 2.0)">t</text><text xml:space="preserve" font-family="Helvetica-Light" font-size="24.6" fill="#FEFFFF" transform="matrix(1.00, 0.00, -0.00, -1.00, 61.6, 2.0)">a</text><text xml:space="preserve" font-family="Helvetica-Light" font-size="24.6" fill="#FEFFFF" transform="matrix(1.00, 0.00, -0.00, -1.00, 75.3, 2.0)">d</text><text xml:space="preserve" font-family="Helvetica-Light" font-size="24.6" fill="#FEFFFF" transform="matrix(1.00, 0.00, -0.00, -1.00, 90.4, 2.0)">a</text><text xml:space="preserve" font-family="Helvetica-Light" font-size="24.6" fill="#FEFFFF" transform="matrix(1.00, 0.00, -0.00, -1.00, 104.1, 2.0)"> </text><text xml:space="preserve" font-family="Helvetica-Light" font-size="24.6" fill="#FEFFFF" transform="matrix(1.00, 0.00, -0.00, -1.00, 110.9, 2.0)">a</text><text xml:space="preserve" font-family="Helvetica-Light" font-size="24.6" fill="#FEFFFF" transform="matrix(1.00, 0.00, -0.00, -1.00, 124.6, 2.0)"> </text><text xml:space="preserve" font-family="Helvetica-Light" font-size="24.6" fill="#FEFFFF" transform="matrix(1.00, 0.00, -0.00, -1.00, 131.5, 2.0)">s</text><text xml:space="preserve" font-family="Helvetica-Light" font-size="24.6" fill="#FEFFFF" transform="matrix(1.00, 0.00, -0.00, -1.00, 143.8, 2.0)">o</text><text xml:space="preserve" font-family="Helvetica-Light" font-size="24.6" fill="#FEFFFF" transform="matrix(1.00, 0.00, -0.00, -1.00, 157.5, 2.0)">l</text><text xml:space="preserve" font-family="Helvetica-Light" font-size="24.6" fill="#FEFFFF" transform="matrix(1.00, 0.00, -0.00, -1.00, 163.0, 2.0)">u</text><text xml:space="preserve" font-family="Helvetica-Light" font-size="24.6" fill="#FEFFFF" transform="matrix(1.00, 0.00, -0.00, -1.00, 176.7, 2.0)">c</text><text xml:space="preserve" font-family="Helvetica-Light" font-size="24.6" fill="#FEFFFF" transform="matrix(1.00, 0.00, -0.00, -1.00, 190.4, 2.0)">i</text><text xml:space="preserve" font-family="Helvetica-Light" font-size="24.6" fill="#FEFFFF" transform="matrix(1.00, 0.00, -0.00, -1.00, 195.8, 2.0)">o</text><text xml:space="preserve" font-family="Helvetica-Light" font-size="24.6" fill="#FEFFFF" transform="matrix(1.00, 0.00, -0.00, -1.00, 209.5, 2.0)">n</text><text xml:space="preserve" font-family="Helvetica-Light" font-size="24.6" fill="#FEFFFF" transform="matrix(1.00, 0.00, -0.00, -1.00, 223.2, 2.0)">a</text><text xml:space="preserve" font-family="Helvetica-Light" font-size="24.6" fill="#FEFFFF" transform="matrix(1.00, 0.00, -0.00, -1.00, 236.9, 2.0)">r</text><text xml:space="preserve" font-family="Helvetica-Light" font-size="24.6" fill="#FEFFFF" transform="matrix(1.00, 0.00, -0.00, -1.00, 245.1, 2.0)"> </text><text xml:space="preserve" font-family="Helvetica-Light" font-size="24.6" fill="#FEFFFF" transform="matrix(1.00, 0.00, -0.00, -1.00, 252.0, 2.0)">l</text><text xml:space="preserve" font-family="Helvetica-Light" font-size="24.6" fill="#FEFFFF" transform="matrix(1.00, 0.00, -0.00, -1.00, 257.5, 2.0)">o</text><text xml:space="preserve" font-family="Helvetica-Light" font-size="24.6" fill="#FEFFFF" transform="matrix(1.00, 0.00, -0.00, -1.00, 271.2, 2.0)">s</text></g></svg>