<?xml version="1.0" encoding="UTF-8" standalone="no"?><svg xmlns="http://www.w3.org/2000/svg" xmlns:xlink="http://www.w3.org/1999/xlink" clip-rule="evenodd" stroke-miterlimit="4.00" viewBox="0 0 257 26"><desc>SVG generated by Keynote</desc><defs></defs><g transform="matrix(1.00, 0.00, -0.00, -1.00, 0.0, 26.0)"><text xml:space="preserve" font-family="Helvetica-Light" font-size="24.6" fill="#FEFFFF" transform="matrix(1.00, 0.00, -0.00, -1.00, 0.0, 7.0)">o</text><text xml:space="preserve" font-family="Helvetica-Light" font-size="24.6" fill="#FEFFFF" transform="matrix(1.00, 0.00, -0.00, -1.00, 13.7, 7.0)">t</text><text xml:space="preserve" font-family="Helvetica-Light" font-size="24.6" fill="#FEFFFF" transform="matrix(1.00, 0.00, -0.00, -1.00, 20.5, 7.0)">o</text><text xml:space="preserve" font-family="Helvetica-Light" font-size="24.6" fill="#FEFFFF" transform="matrix(1.00, 0.00, -0.00, -1.00, 34.2, 7.0)">r</text><text xml:space="preserve" font-family="Helvetica-Light" font-size="24.6" fill="#FEFFFF" transform="matrix(1.00, 0.00, -0.00, -1.00, 42.5, 7.0)">g</text><text xml:space="preserve" font-family="Helvetica-Light" font-size="24.6" fill="#FEFFFF" transform="matrix(1.00, 0.00, -0.00, -1.00, 57.5, 7.0)">a</text><text xml:space="preserve" font-family="Helvetica-Light" font-size="24.6" fill="#FEFFFF" transform="matrix(1.00, 0.00, -0.00, -1.00, 71.2, 7.0)">r</text><text xml:space="preserve" font-family="Helvetica-Light" font-size="24.6" fill="#FEFFFF" transform="matrix(1.00, 0.00, -0.00, -1.00, 79.4, 7.0)"> </text><text xml:space="preserve" font-family="Helvetica-Light" font-size="24.6" fill="#FEFFFF" transform="matrix(1.00, 0.00, -0.00, -1.00, 86.3, 7.0)">a</text><text xml:space="preserve" font-family="Helvetica-Light" font-size="24.6" fill="#FEFFFF" transform="matrix(1.00, 0.00, -0.00, -1.00, 100.0, 7.0)">s</text><text xml:space="preserve" font-family="Helvetica-Light" font-size="24.6" fill="#FEFFFF" transform="matrix(1.00, 0.00, -0.00, -1.00, 112.3, 7.0)">i</text><text xml:space="preserve" font-family="Helvetica-Light" font-size="24.6" fill="#FEFFFF" transform="matrix(1.00, 0.00, -0.00, -1.00, 117.8, 7.0)">s</text><text xml:space="preserve" font-family="Helvetica-Light" font-size="24.6" fill="#FEFFFF" transform="matrix(1.00, 0.00, -0.00, -1.00, 130.1, 7.0)">t</text><text xml:space="preserve" font-family="Helvetica-Light" font-size="24.6" fill="#FEFFFF" transform="matrix(1.00, 0.00, -0.00, -1.00, 136.9, 7.0)">e</text><text xml:space="preserve" font-family="Helvetica-Light" font-size="24.6" fill="#FEFFFF" transform="matrix(1.00, 0.00, -0.00, -1.00, 150.6, 7.0)">n</text><text xml:space="preserve" font-family="Helvetica-Light" font-size="24.6" fill="#FEFFFF" transform="matrix(1.00, 0.00, -0.00, -1.00, 164.3, 7.0)">c</text><text xml:space="preserve" font-family="Helvetica-Light" font-size="24.6" fill="#FEFFFF" transform="matrix(1.00, 0.00, -0.00, -1.00, 178.0, 7.0)">i</text><text xml:space="preserve" font-family="Helvetica-Light" font-size="24.6" fill="#FEFFFF" transform="matrix(1.00, 0.00, -0.00, -1.00, 183.5, 7.0)">a</text><text xml:space="preserve" font-family="Helvetica-Light" font-size="24.6" fill="#FEFFFF" transform="matrix(1.00, 0.00, -0.00, -1.00, 197.2, 7.0)"> </text><text xml:space="preserve" font-family="Helvetica-Light" font-size="24.6" fill="#FEFFFF" transform="matrix(1.00, 0.00, -0.00, -1.00, 204.0, 7.0)">a</text><text xml:space="preserve" font-family="Helvetica-Light" font-size="24.6" fill="#FEFFFF" transform="matrix(1.00, 0.00, -0.00, -1.00, 217.7, 7.0)"> </text><text xml:space="preserve" font-family="Helvetica-Light" font-size="24.6" fill="#FEFFFF" transform="matrix(1.00, 0.00, -0.00, -1.00, 224.6, 7.0)">l</text><text xml:space="preserve" font-family="Helvetica-Light" font-size="24.6" fill="#FEFFFF" transform="matrix(1.00, 0.00, -0.00, -1.00, 230.1, 7.0)">o</text><text xml:space="preserve" font-family="Helvetica-Light" font-size="24.6" fill="#FEFFFF" transform="matrix(1.00, 0.00, -0.00, -1.00, 243.8, 7.0)">s</text></g></svg>