<?xml version="1.0" encoding="UTF-8" standalone="no"?><svg xmlns="http://www.w3.org/2000/svg" xmlns:xlink="http://www.w3.org/1999/xlink" clip-rule="evenodd" stroke-miterlimit="4.00" viewBox="0 0 1024 768"><desc>SVG generated by Keynote</desc><defs></defs><g transform="matrix(1.00, 0.00, -0.00, -1.00, 0.0, 768.0)"><g><clipPath id="clip-82"><path d="M 0.0 768.0 L 1024.0 768.0 L 1024.0 0.0 L 0.0 0.0 Z M 0.0 768.0 "></path></clipPath><g clip-path="url(#clip-82)"><image xlink:href="E7ABA782A15EA3475B4CFCC80A2FEB63.jpeg" width="1024.00" height="768.00" transform="matrix(1.00, 0.00, -0.00, -1.00, 0.0, 768.0)"></image></g></g><text xml:space="preserve" font-family="Helvetica" font-size="54.0" fill="#FFFFFF" transform="matrix(1.00, 0.00, -0.00, -1.00, 222.0, 460.0)">G</text><text xml:space="preserve" font-family="Helvetica" font-size="54.0" fill="#FFFFFF" transform="matrix(1.00, 0.00, -0.00, -1.00, 264.0, 460.0)">e</text><text xml:space="preserve" font-family="Helvetica" font-size="54.0" fill="#FFFFFF" transform="matrix(1.00, 0.00, -0.00, -1.00, 294.0, 460.0)">s</text><text xml:space="preserve" font-family="Helvetica" font-size="54.0" fill="#FFFFFF" transform="matrix(1.00, 0.00, -0.00, -1.00, 321.0, 460.0)">t</text><text xml:space="preserve" font-family="Helvetica" font-size="54.0" fill="#FFFFFF" transform="matrix(1.00, 0.00, -0.00, -1.00, 336.0, 460.0)">i</text><text xml:space="preserve" font-family="Helvetica" font-size="54.0" fill="#FFFFFF" transform="matrix(1.00, 0.00, -0.00, -1.00, 348.0, 460.0)">ó</text><text xml:space="preserve" font-family="Helvetica" font-size="54.0" fill="#FFFFFF" transform="matrix(1.00, 0.00, -0.00, -1.00, 378.1, 460.0)">n</text><text xml:space="preserve" font-family="Helvetica" font-size="54.0" fill="#FFFFFF" transform="matrix(1.00, 0.00, -0.00, -1.00, 408.1, 460.0)"> </text><text xml:space="preserve" font-family="Helvetica" font-size="54.0" fill="#FFFFFF" transform="matrix(1.00, 0.00, -0.00, -1.00, 423.1, 460.0)">d</text><text xml:space="preserve" font-family="Helvetica" font-size="54.0" fill="#FFFFFF" transform="matrix(1.00, 0.00, -0.00, -1.00, 453.2, 460.0)">e</text><text xml:space="preserve" font-family="Helvetica" font-size="54.0" fill="#FFFFFF" transform="matrix(1.00, 0.00, -0.00, -1.00, 483.2, 460.0)"> </text><text xml:space="preserve" font-family="Helvetica" font-size="54.0" fill="#FFFFFF" transform="matrix(1.00, 0.00, -0.00, -1.00, 498.2, 460.0)">I</text><text xml:space="preserve" font-family="Helvetica" font-size="54.0" fill="#FFFFFF" transform="matrix(1.00, 0.00, -0.00, -1.00, 513.2, 460.0)">n</text><text xml:space="preserve" font-family="Helvetica" font-size="54.0" fill="#FFFFFF" transform="matrix(1.00, 0.00, -0.00, -1.00, 543.2, 460.0)">n</text><text xml:space="preserve" font-family="Helvetica" font-size="54.0" fill="#FFFFFF" transform="matrix(1.00, 0.00, -0.00, -1.00, 573.3, 460.0)">o</text><text xml:space="preserve" font-family="Helvetica" font-size="54.0" fill="#FFFFFF" transform="matrix(1.00, 0.00, -0.00, -1.00, 603.3, 460.0)">v</text><text xml:space="preserve" font-family="Helvetica" font-size="54.0" fill="#FFFFFF" transform="matrix(1.00, 0.00, -0.00, -1.00, 630.3, 460.0)">a</text><text xml:space="preserve" font-family="Helvetica" font-size="54.0" fill="#FFFFFF" transform="matrix(1.00, 0.00, -0.00, -1.00, 660.4, 460.0)">c</text><text xml:space="preserve" font-family="Helvetica" font-size="54.0" fill="#FFFFFF" transform="matrix(1.00, 0.00, -0.00, -1.00, 687.4, 460.0)">i</text><text xml:space="preserve" font-family="Helvetica" font-size="54.0" fill="#FFFFFF" transform="matrix(1.00, 0.00, -0.00, -1.00, 699.4, 460.0)">ó</text><text xml:space="preserve" font-family="Helvetica" font-size="54.0" fill="#FFFFFF" transform="matrix(1.00, 0.00, -0.00, -1.00, 729.4, 460.0)">n</text><text xml:space="preserve" font-family="Helvetica" font-size="54.0" fill="#FFFFFF" transform="matrix(1.00, 0.00, -0.00, -1.00, 759.4, 460.0)"> </text><text xml:space="preserve" font-family="Helvetica" font-size="54.0" fill="#FFFFFF" transform="matrix(1.00, 0.00, -0.00, -1.00, 774.4, 460.0)">y</text><text xml:space="preserve" font-family="Helvetica" font-size="54.0" fill="#FFFFFF" transform="matrix(1.00, 0.00, -0.00, -1.00, 801.4, 460.0)"> </text><text xml:space="preserve" font-family="Helvetica" font-size="54.0" fill="#FFFFFF" transform="matrix(1.00, 0.00, -0.00, -1.00, 315.0, 395.0)">E</text><text xml:space="preserve" font-family="Helvetica" font-size="54.0" fill="#FFFFFF" transform="matrix(1.00, 0.00, -0.00, -1.00, 351.0, 395.0)">m</text><text xml:space="preserve" font-family="Helvetica" font-size="54.0" fill="#FFFFFF" transform="matrix(1.00, 0.00, -0.00, -1.00, 396.0, 395.0)">p</text><text xml:space="preserve" font-family="Helvetica" font-size="54.0" fill="#FFFFFF" transform="matrix(1.00, 0.00, -0.00, -1.00, 426.0, 395.0)">r</text><text xml:space="preserve" font-family="Helvetica" font-size="54.0" fill="#FFFFFF" transform="matrix(1.00, 0.00, -0.00, -1.00, 444.0, 395.0)">e</text><text xml:space="preserve" font-family="Helvetica" font-size="54.0" fill="#FFFFFF" transform="matrix(1.00, 0.00, -0.00, -1.00, 474.1, 395.0)">n</text><text xml:space="preserve" font-family="Helvetica" font-size="54.0" fill="#FFFFFF" transform="matrix(1.00, 0.00, -0.00, -1.00, 504.1, 395.0)">d</text><text xml:space="preserve" font-family="Helvetica" font-size="54.0" fill="#FFFFFF" transform="matrix(1.00, 0.00, -0.00, -1.00, 534.2, 395.0)">i</text><text xml:space="preserve" font-family="Helvetica" font-size="54.0" fill="#FFFFFF" transform="matrix(1.00, 0.00, -0.00, -1.00, 546.2, 395.0)">m</text><text xml:space="preserve" font-family="Helvetica" font-size="54.0" fill="#FFFFFF" transform="matrix(1.00, 0.00, -0.00, -1.00, 591.1, 395.0)">i</text><text xml:space="preserve" font-family="Helvetica" font-size="54.0" fill="#FFFFFF" transform="matrix(1.00, 0.00, -0.00, -1.00, 603.2, 395.0)">e</text><text xml:space="preserve" font-family="Helvetica" font-size="54.0" fill="#FFFFFF" transform="matrix(1.00, 0.00, -0.00, -1.00, 633.2, 395.0)">n</text><text xml:space="preserve" font-family="Helvetica" font-size="54.0" fill="#FFFFFF" transform="matrix(1.00, 0.00, -0.00, -1.00, 663.2, 395.0)">t</text><text xml:space="preserve" font-family="Helvetica" font-size="54.0" fill="#FFFFFF" transform="matrix(1.00, 0.00, -0.00, -1.00, 678.2, 395.0)">o</text><text xml:space="preserve" font-family="Helvetica-Light" font-size="32.0" fill="#FEFFFF" transform="matrix(1.00, 0.00, -0.00, -1.00, 106.0, 337.0)">A</text><text xml:space="preserve" font-family="Helvetica-Light" font-size="32.0" fill="#FEFFFF" transform="matrix(1.00, 0.00, -0.00, -1.00, 127.3, 337.0)">l</text><text xml:space="preserve" font-family="Helvetica-Light" font-size="32.0" fill="#FEFFFF" transform="matrix(1.00, 0.00, -0.00, -1.00, 134.4, 337.0)">e</text><text xml:space="preserve" font-family="Helvetica-Light" font-size="32.0" fill="#FEFFFF" transform="matrix(1.00, 0.00, -0.00, -1.00, 152.2, 337.0)">x</text><text xml:space="preserve" font-family="Helvetica-Light" font-size="32.0" fill="#FEFFFF" transform="matrix(1.00, 0.00, -0.00, -1.00, 168.2, 337.0)">i</text><text xml:space="preserve" font-family="Helvetica-Light" font-size="32.0" fill="#FEFFFF" transform="matrix(1.00, 0.00, -0.00, -1.00, 175.3, 337.0)">s</text><text xml:space="preserve" font-family="Helvetica-Light" font-size="32.0" fill="#FEFFFF" transform="matrix(1.00, 0.00, -0.00, -1.00, 191.3, 337.0)"> </text><text xml:space="preserve" font-family="Helvetica-Light" font-size="32.0" fill="#FEFFFF" transform="matrix(1.00, 0.00, -0.00, -1.00, 200.2, 337.0)">Á</text><text xml:space="preserve" font-family="Helvetica-Light" font-size="32.0" fill="#FEFFFF" transform="matrix(1.00, 0.00, -0.00, -1.00, 221.6, 337.0)">n</text><text xml:space="preserve" font-family="Helvetica-Light" font-size="32.0" fill="#FEFFFF" transform="matrix(1.00, 0.00, -0.00, -1.00, 239.4, 337.0)">g</text><text xml:space="preserve" font-family="Helvetica-Light" font-size="32.0" fill="#FEFFFF" transform="matrix(1.00, 0.00, -0.00, -1.00, 258.9, 337.0)">u</text><text xml:space="preserve" font-family="Helvetica-Light" font-size="32.0" fill="#FEFFFF" transform="matrix(1.00, 0.00, -0.00, -1.00, 276.7, 337.0)">l</text><text xml:space="preserve" font-family="Helvetica-Light" font-size="32.0" fill="#FEFFFF" transform="matrix(1.00, 0.00, -0.00, -1.00, 283.8, 337.0)">o</text><text xml:space="preserve" font-family="Helvetica-Light" font-size="32.0" fill="#FEFFFF" transform="matrix(1.00, 0.00, -0.00, -1.00, 301.6, 337.0)">,</text><text xml:space="preserve" font-family="Helvetica-Light" font-size="32.0" fill="#FEFFFF" transform="matrix(1.00, 0.00, -0.00, -1.00, 310.5, 337.0)"> </text><text xml:space="preserve" font-family="Helvetica-Light" font-size="32.0" fill="#FEFFFF" transform="matrix(1.00, 0.00, -0.00, -1.00, 319.4, 337.0)">S</text><text xml:space="preserve" font-family="Helvetica-Light" font-size="32.0" fill="#FEFFFF" transform="matrix(1.00, 0.00, -0.00, -1.00, 339.0, 337.0)">e</text><text xml:space="preserve" font-family="Helvetica-Light" font-size="32.0" fill="#FEFFFF" transform="matrix(1.00, 0.00, -0.00, -1.00, 356.8, 337.0)">b</text><text xml:space="preserve" font-family="Helvetica-Light" font-size="32.0" fill="#FEFFFF" transform="matrix(1.00, 0.00, -0.00, -1.00, 376.3, 337.0)">a</text><text xml:space="preserve" font-family="Helvetica-Light" font-size="32.0" fill="#FEFFFF" transform="matrix(1.00, 0.00, -0.00, -1.00, 394.1, 337.0)">s</text><text xml:space="preserve" font-family="Helvetica-Light" font-size="32.0" fill="#FEFFFF" transform="matrix(1.00, 0.00, -0.00, -1.00, 410.1, 337.0)">t</text><text xml:space="preserve" font-family="Helvetica-Light" font-size="32.0" fill="#FEFFFF" transform="matrix(1.00, 0.00, -0.00, -1.00, 419.0, 337.0)">i</text><text xml:space="preserve" font-family="Helvetica-Light" font-size="32.0" fill="#FEFFFF" transform="matrix(1.00, 0.00, -0.00, -1.00, 426.1, 337.0)">á</text><text xml:space="preserve" font-family="Helvetica-Light" font-size="32.0" fill="#FEFFFF" transform="matrix(1.00, 0.00, -0.00, -1.00, 443.9, 337.0)">n</text><text xml:space="preserve" font-family="Helvetica-Light" font-size="32.0" fill="#FEFFFF" transform="matrix(1.00, 0.00, -0.00, -1.00, 461.7, 337.0)"> </text><text xml:space="preserve" font-family="Helvetica-Light" font-size="32.0" fill="#FEFFFF" transform="matrix(1.00, 0.00, -0.00, -1.00, 470.6, 337.0)">A</text><text xml:space="preserve" font-family="Helvetica-Light" font-size="32.0" fill="#FEFFFF" transform="matrix(1.00, 0.00, -0.00, -1.00, 491.9, 337.0)">r</text><text xml:space="preserve" font-family="Helvetica-Light" font-size="32.0" fill="#FEFFFF" transform="matrix(1.00, 0.00, -0.00, -1.00, 502.6, 337.0)">i</text><text xml:space="preserve" font-family="Helvetica-Light" font-size="32.0" fill="#FEFFFF" transform="matrix(1.00, 0.00, -0.00, -1.00, 509.7, 337.0)">a</text><text xml:space="preserve" font-family="Helvetica-Light" font-size="32.0" fill="#FEFFFF" transform="matrix(1.00, 0.00, -0.00, -1.00, 527.5, 337.0)">s</text><text xml:space="preserve" font-family="Helvetica-Light" font-size="32.0" fill="#FEFFFF" transform="matrix(1.00, 0.00, -0.00, -1.00, 543.5, 337.0)">,</text><text xml:space="preserve" font-family="Helvetica-Light" font-size="32.0" fill="#FEFFFF" transform="matrix(1.00, 0.00, -0.00, -1.00, 552.4, 337.0)"> </text><text xml:space="preserve" font-family="Helvetica-Light" font-size="32.0" fill="#FEFFFF" transform="matrix(1.00, 0.00, -0.00, -1.00, 561.3, 337.0)">A</text><text xml:space="preserve" font-family="Helvetica-Light" font-size="32.0" fill="#FEFFFF" transform="matrix(1.00, 0.00, -0.00, -1.00, 582.6, 337.0)">l</text><text xml:space="preserve" font-family="Helvetica-Light" font-size="32.0" fill="#FEFFFF" transform="matrix(1.00, 0.00, -0.00, -1.00, 589.7, 337.0)">e</text><text xml:space="preserve" font-family="Helvetica-Light" font-size="32.0" fill="#FEFFFF" transform="matrix(1.00, 0.00, -0.00, -1.00, 607.5, 337.0)">x</text><text xml:space="preserve" font-family="Helvetica-Light" font-size="32.0" fill="#FEFFFF" transform="matrix(1.00, 0.00, -0.00, -1.00, 623.5, 337.0)">i</text><text xml:space="preserve" font-family="Helvetica-Light" font-size="32.0" fill="#FEFFFF" transform="matrix(1.00, 0.00, -0.00, -1.00, 630.6, 337.0)">s</text><text xml:space="preserve" font-family="Helvetica-Light" font-size="32.0" fill="#FEFFFF" transform="matrix(1.00, 0.00, -0.00, -1.00, 646.6, 337.0)"> </text><text xml:space="preserve" font-family="Helvetica-Light" font-size="32.0" fill="#FEFFFF" transform="matrix(1.00, 0.00, -0.00, -1.00, 655.5, 337.0)">C</text><text xml:space="preserve" font-family="Helvetica-Light" font-size="32.0" fill="#FEFFFF" transform="matrix(1.00, 0.00, -0.00, -1.00, 678.6, 337.0)">a</text><text xml:space="preserve" font-family="Helvetica-Light" font-size="32.0" fill="#FEFFFF" transform="matrix(1.00, 0.00, -0.00, -1.00, 696.4, 337.0)">b</text><text xml:space="preserve" font-family="Helvetica-Light" font-size="32.0" fill="#FEFFFF" transform="matrix(1.00, 0.00, -0.00, -1.00, 716.0, 337.0)">e</text><text xml:space="preserve" font-family="Helvetica-Light" font-size="32.0" fill="#FEFFFF" transform="matrix(1.00, 0.00, -0.00, -1.00, 733.7, 337.0)">z</text><text xml:space="preserve" font-family="Helvetica-Light" font-size="32.0" fill="#FEFFFF" transform="matrix(1.00, 0.00, -0.00, -1.00, 749.7, 337.0)">a</text><text xml:space="preserve" font-family="Helvetica-Light" font-size="32.0" fill="#FEFFFF" transform="matrix(1.00, 0.00, -0.00, -1.00, 767.5, 337.0)">s</text><text xml:space="preserve" font-family="Helvetica-Light" font-size="32.0" fill="#FEFFFF" transform="matrix(1.00, 0.00, -0.00, -1.00, 783.5, 337.0)">,</text><text xml:space="preserve" font-family="Helvetica-Light" font-size="32.0" fill="#FEFFFF" transform="matrix(1.00, 0.00, -0.00, -1.00, 792.4, 337.0)"> </text><text xml:space="preserve" font-family="Helvetica-Light" font-size="32.0" fill="#FEFFFF" transform="matrix(1.00, 0.00, -0.00, -1.00, 801.3, 337.0)">C</text><text xml:space="preserve" font-family="Helvetica-Light" font-size="32.0" fill="#FEFFFF" transform="matrix(1.00, 0.00, -0.00, -1.00, 824.4, 337.0)">a</text><text xml:space="preserve" font-family="Helvetica-Light" font-size="32.0" fill="#FEFFFF" transform="matrix(1.00, 0.00, -0.00, -1.00, 842.2, 337.0)">t</text><text xml:space="preserve" font-family="Helvetica-Light" font-size="32.0" fill="#FEFFFF" transform="matrix(1.00, 0.00, -0.00, -1.00, 851.1, 337.0)">a</text><text xml:space="preserve" font-family="Helvetica-Light" font-size="32.0" fill="#FEFFFF" transform="matrix(1.00, 0.00, -0.00, -1.00, 868.9, 337.0)">l</text><text xml:space="preserve" font-family="Helvetica-Light" font-size="32.0" fill="#FEFFFF" transform="matrix(1.00, 0.00, -0.00, -1.00, 876.0, 337.0)">i</text><text xml:space="preserve" font-family="Helvetica-Light" font-size="32.0" fill="#FEFFFF" transform="matrix(1.00, 0.00, -0.00, -1.00, 883.1, 337.0)">n</text><text xml:space="preserve" font-family="Helvetica-Light" font-size="32.0" fill="#FEFFFF" transform="matrix(1.00, 0.00, -0.00, -1.00, 900.9, 337.0)">a</text><text xml:space="preserve" font-family="Helvetica-Light" font-size="32.0" fill="#FEFFFF" transform="matrix(1.00, 0.00, -0.00, -1.00, 918.7, 337.0)"> </text><text xml:space="preserve" font-family="Helvetica-Light" font-size="32.0" fill="#FEFFFF" transform="matrix(1.00, 0.00, -0.00, -1.00, 311.0, 299.0)">D</text><text xml:space="preserve" font-family="Helvetica-Light" font-size="32.0" fill="#FEFFFF" transform="matrix(1.00, 0.00, -0.00, -1.00, 334.1, 299.0)">í</text><text xml:space="preserve" font-family="Helvetica-Light" font-size="32.0" fill="#FEFFFF" transform="matrix(1.00, 0.00, -0.00, -1.00, 341.2, 299.0)">a</text><text xml:space="preserve" font-family="Helvetica-Light" font-size="32.0" fill="#FEFFFF" transform="matrix(1.00, 0.00, -0.00, -1.00, 359.0, 299.0)">z</text><text xml:space="preserve" font-family="Helvetica-Light" font-size="32.0" fill="#FEFFFF" transform="matrix(1.00, 0.00, -0.00, -1.00, 375.0, 299.0)">,</text><text xml:space="preserve" font-family="Helvetica-Light" font-size="32.0" fill="#FEFFFF" transform="matrix(1.00, 0.00, -0.00, -1.00, 383.9, 299.0)"> </text><text xml:space="preserve" font-family="Helvetica-Light" font-size="32.0" fill="#FEFFFF" transform="matrix(1.00, 0.00, -0.00, -1.00, 392.8, 299.0)">L</text><text xml:space="preserve" font-family="Helvetica-Light" font-size="32.0" fill="#FEFFFF" transform="matrix(1.00, 0.00, -0.00, -1.00, 410.6, 299.0)">u</text><text xml:space="preserve" font-family="Helvetica-Light" font-size="32.0" fill="#FEFFFF" transform="matrix(1.00, 0.00, -0.00, -1.00, 428.4, 299.0)">i</text><text xml:space="preserve" font-family="Helvetica-Light" font-size="32.0" fill="#FEFFFF" transform="matrix(1.00, 0.00, -0.00, -1.00, 435.5, 299.0)">s</text><text xml:space="preserve" font-family="Helvetica-Light" font-size="32.0" fill="#FEFFFF" transform="matrix(1.00, 0.00, -0.00, -1.00, 451.5, 299.0)"> </text><text xml:space="preserve" font-family="Helvetica-Light" font-size="32.0" fill="#FEFFFF" transform="matrix(1.00, 0.00, -0.00, -1.00, 460.4, 299.0)">L</text><text xml:space="preserve" font-family="Helvetica-Light" font-size="32.0" fill="#FEFFFF" transform="matrix(1.00, 0.00, -0.00, -1.00, 478.2, 299.0)">ó</text><text xml:space="preserve" font-family="Helvetica-Light" font-size="32.0" fill="#FEFFFF" transform="matrix(1.00, 0.00, -0.00, -1.00, 496.0, 299.0)">p</text><text xml:space="preserve" font-family="Helvetica-Light" font-size="32.0" fill="#FEFFFF" transform="matrix(1.00, 0.00, -0.00, -1.00, 515.5, 299.0)">e</text><text xml:space="preserve" font-family="Helvetica-Light" font-size="32.0" fill="#FEFFFF" transform="matrix(1.00, 0.00, -0.00, -1.00, 533.3, 299.0)">z</text><text xml:space="preserve" font-family="Helvetica-Light" font-size="32.0" fill="#FEFFFF" transform="matrix(1.00, 0.00, -0.00, -1.00, 549.3, 299.0)">,</text><text xml:space="preserve" font-family="Helvetica-Light" font-size="32.0" fill="#FEFFFF" transform="matrix(1.00, 0.00, -0.00, -1.00, 558.2, 299.0)"> </text><text xml:space="preserve" font-family="Helvetica-Light" font-size="32.0" fill="#FEFFFF" transform="matrix(1.00, 0.00, -0.00, -1.00, 567.1, 299.0)">E</text><text xml:space="preserve" font-family="Helvetica-Light" font-size="32.0" fill="#FEFFFF" transform="matrix(1.00, 0.00, -0.00, -1.00, 586.6, 299.0)">r</text><text xml:space="preserve" font-family="Helvetica-Light" font-size="32.0" fill="#FEFFFF" transform="matrix(1.00, 0.00, -0.00, -1.00, 597.3, 299.0)">i</text><text xml:space="preserve" font-family="Helvetica-Light" font-size="32.0" fill="#FEFFFF" transform="matrix(1.00, 0.00, -0.00, -1.00, 604.4, 299.0)">k</text><text xml:space="preserve" font-family="Helvetica-Light" font-size="32.0" fill="#FEFFFF" transform="matrix(1.00, 0.00, -0.00, -1.00, 620.4, 299.0)"> </text><text xml:space="preserve" font-family="Helvetica-Light" font-size="32.0" fill="#FEFFFF" transform="matrix(1.00, 0.00, -0.00, -1.00, 629.3, 299.0)">R</text><text xml:space="preserve" font-family="Helvetica-Light" font-size="32.0" fill="#FEFFFF" transform="matrix(1.00, 0.00, -0.00, -1.00, 650.6, 299.0)">e</text><text xml:space="preserve" font-family="Helvetica-Light" font-size="32.0" fill="#FEFFFF" transform="matrix(1.00, 0.00, -0.00, -1.00, 668.4, 299.0)">g</text><text xml:space="preserve" font-family="Helvetica-Light" font-size="32.0" fill="#FEFFFF" transform="matrix(1.00, 0.00, -0.00, -1.00, 688.0, 299.0)">l</text><text xml:space="preserve" font-family="Helvetica-Light" font-size="32.0" fill="#FEFFFF" transform="matrix(1.00, 0.00, -0.00, -1.00, 695.1, 299.0)">a</text></g></svg>