<svg version="1.1" xmlns="http://www.w3.org/2000/svg" xmlns:xlink="http://www.w3.org/1999/xlink" width="1085" height="889"><defs/><g><g transform="translate(10,-102) scale(1,1)"><rect fill="#C0C0C0" stroke="none" x="103" y="591" width="189" height="92" opacity="0.2"/></g><g transform="translate(10,-102) scale(1,1)"><rect fill="#ffffff" stroke="none" x="96" y="584" width="189" height="92"/></g><g transform="translate(10,-102) scale(1,1)"><path fill="none" stroke="#000000" d="M 96 584 L 285 584 L 285 676 L 96 676 L 96 584 Z Z" stroke-miterlimit="10"/></g><g transform="translate(10,-102) scale(1,1)"><rect fill="#ffffff" stroke="none" x="96" y="584" width="189" height="92"/></g><g transform="translate(10,-102) scale(1,1)"><path fill="none" stroke="#000000" d="M 96 584 L 285 584 L 285 676 L 96 676 L 96 584 Z Z" stroke-miterlimit="10"/></g><g transform="translate(10,-102) scale(1,1)"><path fill="none" stroke="#000000" d="M 96 609 L 285 609" stroke-miterlimit="10"/></g><g transform="translate(10,-102) scale(1,1)"><g><path fill="none" stroke="none"/><text fill="#000000" stroke="none" font-family="Arial" font-size="13px" font-style="normal" font-weight="bold" text-decoration="none" x="170" y="603.5">Course</text><path fill="none" stroke="#000000" d="M 212.5 603.5 L 168.5 603.5" stroke-miterlimit="10"/></g></g><g transform="translate(10,-102) scale(1,1)"><g><path fill="none" stroke="none"/><text fill="#000000" stroke="none" font-family="Arial" font-size="13px" font-style="normal" font-weight="normal" text-decoration="none" x="101" y="626.5">+title = "Software Architecture"</text></g></g><g transform="translate(10,-102) scale(1,1)"><g><path fill="none" stroke="none"/><text fill="#000000" stroke="none" font-family="Arial" font-size="13px" font-style="normal" font-weight="normal" text-decoration="none" x="101" y="641.5">+ID = 1234</text></g></g><g transform="translate(10,-102) scale(1,1)"><g><path fill="none" stroke="none"/><text fill="#000000" stroke="none" font-family="Arial" font-size="13px" font-style="normal" font-weight="normal" text-decoration="none" x="101" y="656.5">+revision = 32</text></g></g><g transform="translate(10,-102) scale(1,1)"><rect fill="#C0C0C0" stroke="none" x="447" y="655" width="228" height="77" opacity="0.2"/></g><g transform="translate(10,-102) scale(1,1)"><rect fill="#ffffff" stroke="none" x="440" y="648" width="228" height="77"/></g><g transform="translate(10,-102) scale(1,1)"><path fill="none" stroke="#000000" d="M 440 648 L 668 648 L 668 725 L 440 725 L 440 648 Z Z" stroke-miterlimit="10"/></g><g transform="translate(10,-102) scale(1,1)"><rect fill="#ffffff" stroke="none" x="440" y="648" width="228" height="77"/></g><g transform="translate(10,-102) scale(1,1)"><path fill="none" stroke="#000000" d="M 440 648 L 668 648 L 668 725 L 440 725 L 440 648 Z Z" stroke-miterlimit="10"/></g><g transform="translate(10,-102) scale(1,1)"><path fill="none" stroke="#000000" d="M 440 673 L 668 673" stroke-miterlimit="10"/></g><g transform="translate(10,-102) scale(1,1)"><g><path fill="none" stroke="none"/><text fill="#000000" stroke="none" font-family="Arial" font-size="13px" font-style="normal" font-weight="bold" text-decoration="none" x="531.5" y="667.5">Student</text><path fill="none" stroke="#000000" d="M 578 667.5 L 530 667.5" stroke-miterlimit="10"/></g></g><g transform="translate(10,-102) scale(1,1)"><g><path fill="none" stroke="none"/><text fill="#000000" stroke="none" font-family="Arial" font-size="13px" font-style="normal" font-weight="normal" text-decoration="none" x="445" y="690.5">+name = "Erik Regla"</text></g></g><g transform="translate(10,-102) scale(1,1)"><g><path fill="none" stroke="none"/><text fill="#000000" stroke="none" font-family="Arial" font-size="13px" font-style="normal" font-weight="normal" text-decoration="none" x="445" y="705.5">+ID = 1235</text></g></g><g transform="translate(10,-102) scale(1,1)"><g><path fill="none" stroke="none"/><text fill="#000000" stroke="none" font-family="Arial" font-size="13px" font-style="normal" font-weight="normal" text-decoration="none" x="445" y="720.5">+email = eregla09@alumnos.utalca.cl</text></g></g><g transform="translate(10,-102) scale(1,1)"><path fill="none" stroke="#000000" d="M 285 659 L 440 659" stroke-miterlimit="10"/></g><g transform="translate(10,-102) scale(1,1)"><rect fill="#C0C0C0" stroke="none" x="449" y="775" width="225" height="77" opacity="0.2"/></g><g transform="translate(10,-102) scale(1,1)"><rect fill="#ffffff" stroke="none" x="442" y="768" width="225" height="77"/></g><g transform="translate(10,-102) scale(1,1)"><path fill="none" stroke="#000000" d="M 442 768 L 667 768 L 667 845 L 442 845 L 442 768 Z Z" stroke-miterlimit="10"/></g><g transform="translate(10,-102) scale(1,1)"><rect fill="#ffffff" stroke="none" x="442" y="768" width="225" height="77"/></g><g transform="translate(10,-102) scale(1,1)"><path fill="none" stroke="#000000" d="M 442 768 L 667 768 L 667 845 L 442 845 L 442 768 Z Z" stroke-miterlimit="10"/></g><g transform="translate(10,-102) scale(1,1)"><path fill="none" stroke="#000000" d="M 442 793 L 667 793" stroke-miterlimit="10"/></g><g transform="translate(10,-102) scale(1,1)"><g><path fill="none" stroke="none"/><text fill="#000000" stroke="none" font-family="Arial" font-size="13px" font-style="normal" font-weight="bold" text-decoration="none" x="532" y="787.5">Student</text><path fill="none" stroke="#000000" d="M 578.5 787.5 L 530.5 787.5" stroke-miterlimit="10"/></g></g><g transform="translate(10,-102) scale(1,1)"><g><path fill="none" stroke="none"/><text fill="#000000" stroke="none" font-family="Arial" font-size="13px" font-style="normal" font-weight="normal" text-decoration="none" x="447" y="810.5">+name = "Foo Bar"</text></g></g><g transform="translate(10,-102) scale(1,1)"><g><path fill="none" stroke="none"/><text fill="#000000" stroke="none" font-family="Arial" font-size="13px" font-style="normal" font-weight="normal" text-decoration="none" x="447" y="825.5">+ID = 1236</text></g></g><g transform="translate(10,-102) scale(1,1)"><g><path fill="none" stroke="none"/><text fill="#000000" stroke="none" font-family="Arial" font-size="13px" font-style="normal" font-weight="normal" text-decoration="none" x="447" y="840.5">+email = "foobar@alumnos.utalca.cl"</text></g></g><g transform="translate(10,-102) scale(1,1)"><path fill="none" stroke="#000000" d="M 269 676 L 269 806 L 442 806" stroke-miterlimit="10"/></g><g transform="translate(10,-102) scale(1,1)"><rect fill="#C0C0C0" stroke="none" x="79" y="335" width="255" height="77" opacity="0.2"/></g><g transform="translate(10,-102) scale(1,1)"><rect fill="#ffffff" stroke="none" x="72" y="328" width="255" height="77"/></g><g transform="translate(10,-102) scale(1,1)"><path fill="none" stroke="#000000" d="M 72 328 L 327 328 L 327 405 L 72 405 L 72 328 Z Z" stroke-miterlimit="10"/></g><g transform="translate(10,-102) scale(1,1)"><rect fill="#ffffff" stroke="none" x="72" y="328" width="255" height="77"/></g><g transform="translate(10,-102) scale(1,1)"><path fill="none" stroke="#000000" d="M 72 328 L 327 328 L 327 405 L 72 405 L 72 328 Z Z" stroke-miterlimit="10"/></g><g transform="translate(10,-102) scale(1,1)"><path fill="none" stroke="#000000" d="M 72 353 L 327 353" stroke-miterlimit="10"/></g><g transform="translate(10,-102) scale(1,1)"><g><path fill="none" stroke="none"/><text fill="#000000" stroke="none" font-family="Arial" font-size="13px" font-style="normal" font-weight="bold" text-decoration="none" x="177" y="347.5">Student</text><path fill="none" stroke="#000000" d="M 223.5 347.5 L 175.5 347.5" stroke-miterlimit="10"/></g></g><g transform="translate(10,-102) scale(1,1)"><g><path fill="none" stroke="none"/><text fill="#000000" stroke="none" font-family="Arial" font-size="13px" font-style="normal" font-weight="normal" text-decoration="none" x="77" y="370.5">+name = "Placeholder User"</text></g></g><g transform="translate(10,-102) scale(1,1)"><g><path fill="none" stroke="none"/><text fill="#000000" stroke="none" font-family="Arial" font-size="13px" font-style="normal" font-weight="normal" text-decoration="none" x="77" y="385.5">+ID = 1237</text></g></g><g transform="translate(10,-102) scale(1,1)"><g><path fill="none" stroke="none"/><text fill="#000000" stroke="none" font-family="Arial" font-size="13px" font-style="normal" font-weight="normal" text-decoration="none" x="77" y="400.5">+email = "placeholder@alumnos.utalca.cl"</text></g></g><g transform="translate(10,-102) scale(1,1)"><path fill="none" stroke="#000000" d="M 198 584 L 198 405" stroke-miterlimit="10"/></g><g transform="translate(10,-102) scale(1,1)"><rect fill="#C0C0C0" stroke="none" x="623" y="287" width="170" height="122" opacity="0.2"/></g><g transform="translate(10,-102) scale(1,1)"><rect fill="#ffffff" stroke="none" x="616" y="280" width="170" height="122"/></g><g transform="translate(10,-102) scale(1,1)"><path fill="none" stroke="#000000" d="M 616 280 L 786 280 L 786 402 L 616 402 L 616 280 Z Z" stroke-miterlimit="10"/></g><g transform="translate(10,-102) scale(1,1)"><rect fill="#ffffff" stroke="none" x="616" y="280" width="170" height="122"/></g><g transform="translate(10,-102) scale(1,1)"><path fill="none" stroke="#000000" d="M 616 280 L 786 280 L 786 402 L 616 402 L 616 280 Z Z" stroke-miterlimit="10"/></g><g transform="translate(10,-102) scale(1,1)"><path fill="none" stroke="#000000" d="M 616 305 L 786 305" stroke-miterlimit="10"/></g><g transform="translate(10,-102) scale(1,1)"><g><path fill="none" stroke="none"/><text fill="#000000" stroke="none" font-family="Arial" font-size="13px" font-style="normal" font-weight="bold" text-decoration="none" x="635" y="299.5">GradedFileAssignment</text><path fill="none" stroke="#000000" d="M 772 299.5 L 630 299.5" stroke-miterlimit="10"/></g></g><g transform="translate(10,-102) scale(1,1)"><g><path fill="none" stroke="none"/><text fill="#000000" stroke="none" font-family="Arial" font-size="13px" font-style="normal" font-weight="normal" text-decoration="none" x="621" y="322.5">+name = "Report"</text></g></g><g transform="translate(10,-102) scale(1,1)"><g><path fill="none" stroke="none"/><text fill="#000000" stroke="none" font-family="Arial" font-size="13px" font-style="normal" font-weight="normal" text-decoration="none" x="621" y="337.5">+due_date = 30 dec 2016</text></g></g><g transform="translate(10,-102) scale(1,1)"><g><path fill="none" stroke="none"/><text fill="#000000" stroke="none" font-family="Arial" font-size="13px" font-style="normal" font-weight="normal" text-decoration="none" x="621" y="352.5">+exceed_due_date = false</text></g></g><g transform="translate(10,-102) scale(1,1)"><g><path fill="none" stroke="none"/><text fill="#000000" stroke="none" font-family="Arial" font-size="13px" font-style="normal" font-weight="normal" text-decoration="none" x="621" y="367.5">+closed = false</text></g></g><g transform="translate(10,-102) scale(1,1)"><g><path fill="none" stroke="none"/><text fill="#000000" stroke="none" font-family="Arial" font-size="13px" font-style="normal" font-weight="normal" text-decoration="none" x="621" y="382.5">+team_min_size = 1</text></g></g><g transform="translate(10,-102) scale(1,1)"><g><path fill="none" stroke="none"/><text fill="#000000" stroke="none" font-family="Arial" font-size="13px" font-style="normal" font-weight="normal" text-decoration="none" x="621" y="397.5">+team_max_size = 2</text></g></g><g transform="translate(10,-102) scale(1,1)"><path fill="none" stroke="#000000" d="M 701 560 L 701 402" stroke-miterlimit="10"/></g><g transform="translate(10,-102) scale(1,1)"><rect fill="#C0C0C0" stroke="none" x="895" y="383" width="177" height="62" opacity="0.2"/></g><g transform="translate(10,-102) scale(1,1)"><rect fill="#ffffff" stroke="none" x="888" y="376" width="177" height="62"/></g><g transform="translate(10,-102) scale(1,1)"><path fill="none" stroke="#000000" d="M 888 376 L 1065 376 L 1065 438 L 888 438 L 888 376 Z Z" stroke-miterlimit="10"/></g><g transform="translate(10,-102) scale(1,1)"><rect fill="#ffffff" stroke="none" x="888" y="376" width="177" height="62"/></g><g transform="translate(10,-102) scale(1,1)"><path fill="none" stroke="#000000" d="M 888 376 L 1065 376 L 1065 438 L 888 438 L 888 376 Z Z" stroke-miterlimit="10"/></g><g transform="translate(10,-102) scale(1,1)"><path fill="none" stroke="#000000" d="M 888 401 L 1065 401" stroke-miterlimit="10"/></g><g transform="translate(10,-102) scale(1,1)"><g><path fill="none" stroke="none"/><text fill="#000000" stroke="none" font-family="Arial" font-size="13px" font-style="normal" font-weight="bold" text-decoration="none" x="960" y="395.5">Team</text><path fill="none" stroke="#000000" d="M 993.5 395.5 L 959.5 395.5" stroke-miterlimit="10"/></g></g><g transform="translate(10,-102) scale(1,1)"><g><path fill="none" stroke="none"/><text fill="#000000" stroke="none" font-family="Arial" font-size="13px" font-style="normal" font-weight="normal" text-decoration="none" x="893" y="418.5">+ID = 3</text></g></g><g transform="translate(10,-102) scale(1,1)"><g><path fill="none" stroke="none"/><text fill="#000000" stroke="none" font-family="Arial" font-size="13px" font-style="normal" font-weight="normal" text-decoration="none" x="893" y="433.5">+grade = 1.0</text></g></g><g transform="translate(10,-102) scale(1,1)"><path fill="none" stroke="#000000" d="M 668 678 L 976 678 L 976 438" stroke-miterlimit="10"/></g><g transform="translate(10,-102) scale(1,1)"><path fill="none" stroke="#000000" d="M 667 806 L 976 806 L 976 438" stroke-miterlimit="10"/></g><g transform="translate(10,-102) scale(1,1)"><path fill="none" stroke="#000000" d="M 786 380 L 888 380" stroke-miterlimit="10"/></g><g transform="translate(10,-102) scale(1,1)"><path fill="none" stroke="#000000" d="M 200 328 L 200 264 L 384 264" stroke-miterlimit="10"/></g><g transform="translate(10,-102) scale(1,1)"><rect fill="#C0C0C0" stroke="none" x="927" y="127" width="127" height="62" opacity="0.2"/></g><g transform="translate(10,-102) scale(1,1)"><rect fill="#ffffff" stroke="none" x="920" y="120" width="127" height="62"/></g><g transform="translate(10,-102) scale(1,1)"><path fill="none" stroke="#000000" d="M 920 120 L 1047 120 L 1047 182 L 920 182 L 920 120 Z Z" stroke-miterlimit="10"/></g><g transform="translate(10,-102) scale(1,1)"><rect fill="#ffffff" stroke="none" x="920" y="120" width="127" height="62"/></g><g transform="translate(10,-102) scale(1,1)"><path fill="none" stroke="#000000" d="M 920 120 L 1047 120 L 1047 182 L 920 182 L 920 120 Z Z" stroke-miterlimit="10"/></g><g transform="translate(10,-102) scale(1,1)"><path fill="none" stroke="#000000" d="M 920 145 L 1047 145" stroke-miterlimit="10"/></g><g transform="translate(10,-102) scale(1,1)"><g><path fill="none" stroke="none"/><text fill="#000000" stroke="none" font-family="Arial" font-size="13px" font-style="normal" font-weight="bold" text-decoration="none" x="949.5" y="139.5">Submission</text><path fill="none" stroke="#000000" d="M 1021 139.5 L 946 139.5" stroke-miterlimit="10"/></g></g><g transform="translate(10,-102) scale(1,1)"><g><path fill="none" stroke="none"/><text fill="#000000" stroke="none" font-family="Arial" font-size="13px" font-style="normal" font-weight="normal" text-decoration="none" x="925" y="162.5">+revision = 12</text></g></g><g transform="translate(10,-102) scale(1,1)"><g><path fill="none" stroke="none"/><text fill="#000000" stroke="none" font-family="Arial" font-size="13px" font-style="normal" font-weight="normal" text-decoration="none" x="925" y="177.5">+file = 12431234.jpg</text></g></g><g transform="translate(10,-102) scale(1,1)"><path fill="none" stroke="#000000" d="M 976 376 L 976 182" stroke-miterlimit="10"/></g><g transform="translate(10,-102) scale(1,1)"><rect fill="#C0C0C0" stroke="none" x="391" y="239" width="56" height="62" opacity="0.2"/></g><g transform="translate(10,-102) scale(1,1)"><rect fill="#ffffff" stroke="none" x="384" y="232" width="56" height="62"/></g><g transform="translate(10,-102) scale(1,1)"><path fill="none" stroke="#000000" d="M 384 232 L 440 232 L 440 294 L 384 294 L 384 232 Z Z" stroke-miterlimit="10"/></g><g transform="translate(10,-102) scale(1,1)"><rect fill="#ffffff" stroke="none" x="384" y="232" width="56" height="62"/></g><g transform="translate(10,-102) scale(1,1)"><path fill="none" stroke="#000000" d="M 384 232 L 440 232 L 440 294 L 384 294 L 384 232 Z Z" stroke-miterlimit="10"/></g><g transform="translate(10,-102) scale(1,1)"><path fill="none" stroke="#000000" d="M 384 257 L 440 257" stroke-miterlimit="10"/></g><g transform="translate(10,-102) scale(1,1)"><g><path fill="none" stroke="none"/><text fill="#000000" stroke="none" font-family="Arial" font-size="13px" font-style="normal" font-weight="bold" text-decoration="none" x="395.5" y="251.5">Team</text><path fill="none" stroke="#000000" d="M 429 251.5 L 395 251.5" stroke-miterlimit="10"/></g></g><g transform="translate(10,-102) scale(1,1)"><g><path fill="none" stroke="none"/><text fill="#000000" stroke="none" font-family="Arial" font-size="13px" font-style="normal" font-weight="normal" text-decoration="none" x="389" y="274.5">+ID = 8</text></g></g><g transform="translate(10,-102) scale(1,1)"><path fill="none" stroke="#000000" d="M 412 294 L 412 341 L 616 341" stroke-miterlimit="10"/></g><g transform="translate(10,-102) scale(1,1)"><rect fill="#C0C0C0" stroke="none" x="319" y="119" width="169" height="77" opacity="0.2"/></g><g transform="translate(10,-102) scale(1,1)"><rect fill="#ffffff" stroke="none" x="312" y="112" width="169" height="77"/></g><g transform="translate(10,-102) scale(1,1)"><path fill="none" stroke="#000000" d="M 312 112 L 481 112 L 481 189 L 312 189 L 312 112 Z Z" stroke-miterlimit="10"/></g><g transform="translate(10,-102) scale(1,1)"><rect fill="#ffffff" stroke="none" x="312" y="112" width="169" height="77"/></g><g transform="translate(10,-102) scale(1,1)"><path fill="none" stroke="#000000" d="M 312 112 L 481 112 L 481 189 L 312 189 L 312 112 Z Z" stroke-miterlimit="10"/></g><g transform="translate(10,-102) scale(1,1)"><path fill="none" stroke="#000000" d="M 312 137 L 481 137" stroke-miterlimit="10"/></g><g transform="translate(10,-102) scale(1,1)"><g><path fill="none" stroke="none"/><text fill="#000000" stroke="none" font-family="Arial" font-size="13px" font-style="normal" font-weight="bold" text-decoration="none" x="362.5" y="131.5">Submission</text><path fill="none" stroke="#000000" d="M 434 131.5 L 359 131.5" stroke-miterlimit="10"/></g></g><g transform="translate(10,-102) scale(1,1)"><g><path fill="none" stroke="none"/><text fill="#000000" stroke="none" font-family="Arial" font-size="13px" font-style="normal" font-weight="normal" text-decoration="none" x="317" y="154.5">+revision = 1</text></g></g><g transform="translate(10,-102) scale(1,1)"><g><path fill="none" stroke="none"/><text fill="#000000" stroke="none" font-family="Arial" font-size="13px" font-style="normal" font-weight="normal" text-decoration="none" x="317" y="169.5">+file = 123.pdf</text></g></g><g transform="translate(10,-102) scale(1,1)"><g><path fill="none" stroke="none"/><text fill="#000000" stroke="none" font-family="Arial" font-size="13px" font-style="normal" font-weight="normal" text-decoration="none" x="317" y="184.5">+grade = 4.5</text></g></g><g transform="translate(10,-102) scale(1,1)"><path fill="none" stroke="#000000" d="M 416 232 L 416 189" stroke-miterlimit="10"/></g><g transform="translate(10,-102) scale(1,1)"><rect fill="#C0C0C0" stroke="none" x="695" y="143" width="176" height="62" opacity="0.2"/></g><g transform="translate(10,-102) scale(1,1)"><rect fill="#ffffff" stroke="none" x="688" y="136" width="176" height="62"/></g><g transform="translate(10,-102) scale(1,1)"><path fill="none" stroke="#000000" d="M 688 136 L 864 136 L 864 198 L 688 198 L 688 136 Z Z" stroke-miterlimit="10"/></g><g transform="translate(10,-102) scale(1,1)"><rect fill="#ffffff" stroke="none" x="688" y="136" width="176" height="62"/></g><g transform="translate(10,-102) scale(1,1)"><path fill="none" stroke="#000000" d="M 688 136 L 864 136 L 864 198 L 688 198 L 688 136 Z Z" stroke-miterlimit="10"/></g><g transform="translate(10,-102) scale(1,1)"><path fill="none" stroke="#000000" d="M 688 161 L 864 161" stroke-miterlimit="10"/></g><g transform="translate(10,-102) scale(1,1)"><g><path fill="none" stroke="none"/><text fill="#000000" stroke="none" font-family="Arial" font-size="13px" font-style="normal" font-weight="bold" text-decoration="none" x="757.5" y="155.5">Forum</text><path fill="none" stroke="#000000" d="M 796.5 155.5 L 755.5 155.5" stroke-miterlimit="10"/></g></g><g transform="translate(10,-102) scale(1,1)"><g><path fill="none" stroke="none"/><text fill="#000000" stroke="none" font-family="Arial" font-size="13px" font-style="normal" font-weight="normal" text-decoration="none" x="693" y="178.5">+name = "Forum1"</text></g></g><g transform="translate(10,-102) scale(1,1)"><g><path fill="none" stroke="none"/><text fill="#000000" stroke="none" font-family="Arial" font-size="13px" font-style="normal" font-weight="normal" text-decoration="none" x="693" y="193.5">+ID = 12</text></g></g><g transform="translate(10,-102) scale(1,1)"><path fill="none" stroke="#000000" d="M 728 279 L 762 199" stroke-miterlimit="10"/></g><g transform="translate(10,-102) scale(1,1)"><rect fill="#C0C0C0" stroke="none" x="783" y="535" width="170" height="62" opacity="0.2"/></g><g transform="translate(10,-102) scale(1,1)"><rect fill="#ffffff" stroke="none" x="776" y="528" width="170" height="62"/></g><g transform="translate(10,-102) scale(1,1)"><path fill="none" stroke="#000000" d="M 776 528 L 946 528 L 946 590 L 776 590 L 776 528 Z Z" stroke-miterlimit="10"/></g><g transform="translate(10,-102) scale(1,1)"><rect fill="#ffffff" stroke="none" x="776" y="528" width="170" height="62"/></g><g transform="translate(10,-102) scale(1,1)"><path fill="none" stroke="#000000" d="M 776 528 L 946 528 L 946 590 L 776 590 L 776 528 Z Z" stroke-miterlimit="10"/></g><g transform="translate(10,-102) scale(1,1)"><path fill="none" stroke="#000000" d="M 776 553 L 946 553" stroke-miterlimit="10"/></g><g transform="translate(10,-102) scale(1,1)"><g><path fill="none" stroke="none"/><text fill="#000000" stroke="none" font-family="Arial" font-size="13px" font-style="normal" font-weight="bold" text-decoration="none" x="842.5" y="547.5">Forum</text><path fill="none" stroke="#000000" d="M 881.5 547.5 L 840.5 547.5" stroke-miterlimit="10"/></g></g><g transform="translate(10,-102) scale(1,1)"><g><path fill="none" stroke="none"/><text fill="#000000" stroke="none" font-family="Arial" font-size="13px" font-style="normal" font-weight="normal" text-decoration="none" x="781" y="570.5">+name = "TEAM3 FORUM"</text></g></g><g transform="translate(10,-102) scale(1,1)"><g><path fill="none" stroke="none"/><text fill="#000000" stroke="none" font-family="Arial" font-size="13px" font-style="normal" font-weight="normal" text-decoration="none" x="781" y="585.5">+ID = 13</text></g></g><g transform="translate(10,-102) scale(1,1)"><path fill="none" stroke="#000000" d="M 971 439 L 952 559 L 947 559" stroke-miterlimit="10"/></g><g transform="translate(10,-102) scale(1,1)"><rect fill="#C0C0C0" stroke="none" x="79" y="911" width="224" height="77" opacity="0.2"/></g><g transform="translate(10,-102) scale(1,1)"><rect fill="#ffffff" stroke="none" x="72" y="904" width="224" height="77"/></g><g transform="translate(10,-102) scale(1,1)"><path fill="none" stroke="#000000" d="M 72 904 L 296 904 L 296 981 L 72 981 L 72 904 Z Z" stroke-miterlimit="10"/></g><g transform="translate(10,-102) scale(1,1)"><rect fill="#ffffff" stroke="none" x="72" y="904" width="224" height="77"/></g><g transform="translate(10,-102) scale(1,1)"><path fill="none" stroke="#000000" d="M 72 904 L 296 904 L 296 981 L 72 981 L 72 904 Z Z" stroke-miterlimit="10"/></g><g transform="translate(10,-102) scale(1,1)"><path fill="none" stroke="#000000" d="M 72 929 L 296 929" stroke-miterlimit="10"/></g><g transform="translate(10,-102) scale(1,1)"><g><path fill="none" stroke="none"/><text fill="#000000" stroke="none" font-family="Arial" font-size="13px" font-style="normal" font-weight="bold" text-decoration="none" x="156" y="923.5">Professor</text><path fill="none" stroke="#000000" d="M 214 923.5 L 154 923.5" stroke-miterlimit="10"/></g></g><g transform="translate(10,-102) scale(1,1)"><g><path fill="none" stroke="none"/><text fill="#000000" stroke="none" font-family="Arial" font-size="13px" font-style="normal" font-weight="normal" text-decoration="none" x="77" y="946.5">+name = "Edgardo Ortiz"</text></g></g><g transform="translate(10,-102) scale(1,1)"><g><path fill="none" stroke="none"/><text fill="#000000" stroke="none" font-family="Arial" font-size="13px" font-style="normal" font-weight="normal" text-decoration="none" x="77" y="961.5">+ID = 1</text></g></g><g transform="translate(10,-102) scale(1,1)"><g><path fill="none" stroke="none"/><text fill="#000000" stroke="none" font-family="Arial" font-size="13px" font-style="normal" font-weight="normal" text-decoration="none" x="77" y="976.5">+email = "eortiz@utalca.cl"</text></g></g><g transform="translate(10,-102) scale(1,1)"><path fill="none" stroke="#000000" d="M 189 677 L 185 903" stroke-miterlimit="10"/></g><g transform="translate(10,-102) scale(1,1)"><rect fill="#C0C0C0" stroke="none" x="7" y="495" width="112" height="62" opacity="0.2"/></g><g transform="translate(10,-102) scale(1,1)"><rect fill="#ffffff" stroke="none" x="0" y="488" width="112" height="62"/></g><g transform="translate(10,-102) scale(1,1)"><path fill="none" stroke="#000000" d="M 0 488 L 112 488 L 112 550 L 0 550 L 0 488 Z Z" stroke-miterlimit="10"/></g><g transform="translate(10,-102) scale(1,1)"><rect fill="#ffffff" stroke="none" x="0" y="488" width="112" height="62"/></g><g transform="translate(10,-102) scale(1,1)"><path fill="none" stroke="#000000" d="M 0 488 L 112 488 L 112 550 L 0 550 L 0 488 Z Z" stroke-miterlimit="10"/></g><g transform="translate(10,-102) scale(1,1)"><path fill="none" stroke="#000000" d="M 0 513 L 112 513" stroke-miterlimit="10"/></g><g transform="translate(10,-102) scale(1,1)"><g><path fill="none" stroke="none"/><text fill="#000000" stroke="none" font-family="Arial" font-size="13px" font-style="normal" font-weight="bold" text-decoration="none" x="37.5" y="507.5">Forum</text><path fill="none" stroke="#000000" d="M 76.5 507.5 L 35.5 507.5" stroke-miterlimit="10"/></g></g><g transform="translate(10,-102) scale(1,1)"><g><path fill="none" stroke="none"/><text fill="#000000" stroke="none" font-family="Arial" font-size="13px" font-style="normal" font-weight="normal" text-decoration="none" x="5" y="530.5">+name = "Forum"</text></g></g><g transform="translate(10,-102) scale(1,1)"><g><path fill="none" stroke="none"/><text fill="#000000" stroke="none" font-family="Arial" font-size="13px" font-style="normal" font-weight="normal" text-decoration="none" x="5" y="545.5">+ID = 17</text></g></g><g transform="translate(10,-102) scale(1,1)"><path fill="none" stroke="#000000" d="M 95 630 L 95 630 L 67 551" stroke-miterlimit="10"/></g><g transform="translate(10,-102) scale(1,1)"><rect fill="#C0C0C0" stroke="none" x="631" y="567" width="122" height="62" opacity="0.2"/></g><g transform="translate(10,-102) scale(1,1)"><rect fill="#ffffff" stroke="none" x="624" y="560" width="122" height="62"/></g><g transform="translate(10,-102) scale(1,1)"><path fill="none" stroke="#000000" d="M 624 560 L 746 560 L 746 622 L 624 622 L 624 560 Z Z" stroke-miterlimit="10"/></g><g transform="translate(10,-102) scale(1,1)"><rect fill="#ffffff" stroke="none" x="624" y="560" width="122" height="62"/></g><g transform="translate(10,-102) scale(1,1)"><path fill="none" stroke="#000000" d="M 624 560 L 746 560 L 746 622 L 624 622 L 624 560 Z Z" stroke-miterlimit="10"/></g><g transform="translate(10,-102) scale(1,1)"><path fill="none" stroke="#000000" d="M 624 585 L 746 585" stroke-miterlimit="10"/></g><g transform="translate(10,-102) scale(1,1)"><g><path fill="none" stroke="none"/><text fill="#000000" stroke="none" font-family="Arial" font-size="13px" font-style="normal" font-weight="bold" text-decoration="none" x="669" y="579.5">Topic</text><path fill="none" stroke="#000000" d="M 702.5 579.5 L 667.5 579.5" stroke-miterlimit="10"/></g></g><g transform="translate(10,-102) scale(1,1)"><g><path fill="none" stroke="none"/><text fill="#000000" stroke="none" font-family="Arial" font-size="13px" font-style="normal" font-weight="normal" text-decoration="none" x="629" y="602.5">+name = "Unidad1"</text></g></g><g transform="translate(10,-102) scale(1,1)"><g><path fill="none" stroke="none"/><text fill="#000000" stroke="none" font-family="Arial" font-size="13px" font-style="normal" font-weight="normal" text-decoration="none" x="629" y="617.5">+ID = 56</text></g></g><g transform="translate(10,-102) scale(1,1)"><path fill="none" stroke="#000000" d="M 623 596 L 286 622" stroke-miterlimit="10"/></g><g transform="translate(10,-102) scale(1,1)"><rect fill="#C0C0C0" stroke="none" x="263" y="439" width="126" height="62" opacity="0.2"/></g><g transform="translate(10,-102) scale(1,1)"><rect fill="#ffffff" stroke="none" x="256" y="432" width="126" height="62"/></g><g transform="translate(10,-102) scale(1,1)"><path fill="none" stroke="#000000" d="M 256 432 L 382 432 L 382 494 L 256 494 L 256 432 Z Z" stroke-miterlimit="10"/></g><g transform="translate(10,-102) scale(1,1)"><rect fill="#ffffff" stroke="none" x="256" y="432" width="126" height="62"/></g><g transform="translate(10,-102) scale(1,1)"><path fill="none" stroke="#000000" d="M 256 432 L 382 432 L 382 494 L 256 494 L 256 432 Z Z" stroke-miterlimit="10"/></g><g transform="translate(10,-102) scale(1,1)"><path fill="none" stroke="#000000" d="M 256 457 L 382 457" stroke-miterlimit="10"/></g><g transform="translate(10,-102) scale(1,1)"><g><path fill="none" stroke="none"/><text fill="#000000" stroke="none" font-family="Arial" font-size="13px" font-style="normal" font-weight="bold" text-decoration="none" x="303" y="451.5">Topic</text><path fill="none" stroke="#000000" d="M 336.5 451.5 L 301.5 451.5" stroke-miterlimit="10"/></g></g><g transform="translate(10,-102) scale(1,1)"><g><path fill="none" stroke="none"/><text fill="#000000" stroke="none" font-family="Arial" font-size="13px" font-style="normal" font-weight="normal" text-decoration="none" x="261" y="474.5">+name = "Unidad 2"</text></g></g><g transform="translate(10,-102) scale(1,1)"><g><path fill="none" stroke="none"/><text fill="#000000" stroke="none" font-family="Arial" font-size="13px" font-style="normal" font-weight="normal" text-decoration="none" x="261" y="489.5">+ID = 57</text></g></g><g transform="translate(10,-102) scale(1,1)"><rect fill="#C0C0C0" stroke="none" x="423" y="367" width="161" height="62" opacity="0.2"/></g><g transform="translate(10,-102) scale(1,1)"><rect fill="#ffffff" stroke="none" x="416" y="360" width="161" height="62"/></g><g transform="translate(10,-102) scale(1,1)"><path fill="none" stroke="#000000" d="M 416 360 L 577 360 L 577 422 L 416 422 L 416 360 Z Z" stroke-miterlimit="10"/></g><g transform="translate(10,-102) scale(1,1)"><rect fill="#ffffff" stroke="none" x="416" y="360" width="161" height="62"/></g><g transform="translate(10,-102) scale(1,1)"><path fill="none" stroke="#000000" d="M 416 360 L 577 360 L 577 422 L 416 422 L 416 360 Z Z" stroke-miterlimit="10"/></g><g transform="translate(10,-102) scale(1,1)"><path fill="none" stroke="#000000" d="M 416 385 L 577 385" stroke-miterlimit="10"/></g><g transform="translate(10,-102) scale(1,1)"><g><path fill="none" stroke="none"/><text fill="#000000" stroke="none" font-family="Arial" font-size="13px" font-style="normal" font-weight="bold" text-decoration="none" x="478" y="379.5">Forum</text><path fill="none" stroke="#000000" d="M 517 379.5 L 476 379.5" stroke-miterlimit="10"/></g></g><g transform="translate(10,-102) scale(1,1)"><g><path fill="none" stroke="none"/><text fill="#000000" stroke="none" font-family="Arial" font-size="13px" font-style="normal" font-weight="normal" text-decoration="none" x="421" y="402.5">+name = "forum unidad 2"</text></g></g><g transform="translate(10,-102) scale(1,1)"><g><path fill="none" stroke="none"/><text fill="#000000" stroke="none" font-family="Arial" font-size="13px" font-style="normal" font-weight="normal" text-decoration="none" x="421" y="417.5">+ID = 14</text></g></g><g transform="translate(10,-102) scale(1,1)"><path fill="none" stroke="#000000" d="M 441 423 L 417 437 L 383 446" stroke-miterlimit="10"/></g><g transform="translate(10,-102) scale(1,1)"><path fill="none" stroke="#000000" d="M 314 495 L 294 630 L 286 630" stroke-miterlimit="10"/></g><g transform="translate(10,-102) scale(1,1)"><rect fill="#C0C0C0" stroke="none" x="463" y="471" width="114" height="77" opacity="0.2"/></g><g transform="translate(10,-102) scale(1,1)"><rect fill="#ffffff" stroke="none" x="456" y="464" width="114" height="77"/></g><g transform="translate(10,-102) scale(1,1)"><path fill="none" stroke="#000000" d="M 456 464 L 570 464 L 570 541 L 456 541 L 456 464 Z Z" stroke-miterlimit="10"/></g><g transform="translate(10,-102) scale(1,1)"><rect fill="#ffffff" stroke="none" x="456" y="464" width="114" height="77"/></g><g transform="translate(10,-102) scale(1,1)"><path fill="none" stroke="#000000" d="M 456 464 L 570 464 L 570 541 L 456 541 L 456 464 Z Z" stroke-miterlimit="10"/></g><g transform="translate(10,-102) scale(1,1)"><path fill="none" stroke="#000000" d="M 456 489 L 570 489" stroke-miterlimit="10"/></g><g transform="translate(10,-102) scale(1,1)"><g><path fill="none" stroke="none"/><text fill="#000000" stroke="none" font-family="Arial" font-size="13px" font-style="normal" font-weight="bold" text-decoration="none" x="475" y="483.5">FileResource</text><path fill="none" stroke="#000000" d="M 553.5 483.5 L 472.5 483.5" stroke-miterlimit="10"/></g></g><g transform="translate(10,-102) scale(1,1)"><g><path fill="none" stroke="none"/><text fill="#000000" stroke="none" font-family="Arial" font-size="13px" font-style="normal" font-weight="normal" text-decoration="none" x="461" y="506.5">+name = "Libro 1"</text></g></g><g transform="translate(10,-102) scale(1,1)"><g><path fill="none" stroke="none"/><text fill="#000000" stroke="none" font-family="Arial" font-size="13px" font-style="normal" font-weight="normal" text-decoration="none" x="461" y="521.5">+ID = 991</text></g></g><g transform="translate(10,-102) scale(1,1)"><g><path fill="none" stroke="none"/><text fill="#000000" stroke="none" font-family="Arial" font-size="13px" font-style="normal" font-weight="normal" text-decoration="none" x="461" y="536.5">+file = "libro.pdf"</text></g></g><g transform="translate(10,-102) scale(1,1)"><path fill="none" stroke="#000000" d="M 455 490 L 383 476" stroke-miterlimit="10"/></g></g></svg>