<svg version="1.1" xmlns="http://www.w3.org/2000/svg" xmlns:xlink="http://www.w3.org/1999/xlink" width="732" height="662"><defs/><g><g transform="translate(-4,2) scale(1,1)"><rect fill="#C0C0C0" stroke="none" x="319" y="263" width="119" height="62" opacity="0.2"/></g><g transform="translate(-4,2) scale(1,1)"><rect fill="#ffffff" stroke="none" x="312" y="256" width="119" height="62"/></g><g transform="translate(-4,2) scale(1,1)"><path fill="none" stroke="#000000" d="M 312 256 L 431 256 L 431 318 L 312 318 L 312 256 Z Z" stroke-miterlimit="10"/></g><g transform="translate(-4,2) scale(1,1)"><rect fill="#ffffff" stroke="none" x="312" y="256" width="119" height="62"/></g><g transform="translate(-4,2) scale(1,1)"><path fill="none" stroke="#000000" d="M 312 256 L 431 256 L 431 318 L 312 318 L 312 256 Z Z" stroke-miterlimit="10"/></g><g transform="translate(-4,2) scale(1,1)"><path fill="none" stroke="#000000" d="M 312 281 L 431 281" stroke-miterlimit="10"/></g><g transform="translate(-4,2) scale(1,1)"><g><path fill="none" stroke="none"/><text fill="#000000" stroke="none" font-family="Arial" font-size="13px" font-style="normal" font-weight="bold" text-decoration="none" x="353" y="275.5">Forum</text><path fill="none" stroke="#000000" d="M 392 275.5 L 351 275.5" stroke-miterlimit="10"/></g></g><g transform="translate(-4,2) scale(1,1)"><g><path fill="none" stroke="none"/><text fill="#000000" stroke="none" font-family="Arial" font-size="13px" font-style="normal" font-weight="normal" text-decoration="none" x="317" y="298.5">+name = "Forum1"</text></g></g><g transform="translate(-4,2) scale(1,1)"><g><path fill="none" stroke="none"/><text fill="#000000" stroke="none" font-family="Arial" font-size="13px" font-style="normal" font-weight="normal" text-decoration="none" x="317" y="313.5">+ID = 12</text></g></g><g transform="translate(-4,2) scale(1,1)"><rect fill="#C0C0C0" stroke="none" x="151" y="87" width="128" height="62" opacity="0.2"/></g><g transform="translate(-4,2) scale(1,1)"><rect fill="#ffffff" stroke="none" x="144" y="80" width="128" height="62"/></g><g transform="translate(-4,2) scale(1,1)"><path fill="none" stroke="#000000" d="M 144 80 L 272 80 L 272 142 L 144 142 L 144 80 Z Z" stroke-miterlimit="10"/></g><g transform="translate(-4,2) scale(1,1)"><rect fill="#ffffff" stroke="none" x="144" y="80" width="128" height="62"/></g><g transform="translate(-4,2) scale(1,1)"><path fill="none" stroke="#000000" d="M 144 80 L 272 80 L 272 142 L 144 142 L 144 80 Z Z" stroke-miterlimit="10"/></g><g transform="translate(-4,2) scale(1,1)"><path fill="none" stroke="#000000" d="M 144 105 L 272 105" stroke-miterlimit="10"/></g><g transform="translate(-4,2) scale(1,1)"><g><path fill="none" stroke="none"/><text fill="#000000" stroke="none" font-family="Arial" font-size="13px" font-style="normal" font-weight="bold" text-decoration="none" x="192.5" y="99.5">Entry</text><path fill="none" stroke="#000000" d="M 224.5 99.5 L 191.5 99.5" stroke-miterlimit="10"/></g></g><g transform="translate(-4,2) scale(1,1)"><g><path fill="none" stroke="none"/><text fill="#000000" stroke="none" font-family="Arial" font-size="13px" font-style="normal" font-weight="normal" text-decoration="none" x="149" y="122.5">+message = "asfaa"</text></g></g><g transform="translate(-4,2) scale(1,1)"><g><path fill="none" stroke="none"/><text fill="#000000" stroke="none" font-family="Arial" font-size="13px" font-style="normal" font-weight="normal" text-decoration="none" x="149" y="137.5">+author = 1235</text></g></g><g transform="translate(-4,2) scale(1,1)"><path fill="none" stroke="#000000" d="M 344 256 L 344 112 L 272 112" stroke-miterlimit="10"/></g><g transform="translate(-4,2) scale(1,1)"><rect fill="#C0C0C0" stroke="none" x="319" y="15" width="117" height="62" opacity="0.2"/></g><g transform="translate(-4,2) scale(1,1)"><rect fill="#ffffff" stroke="none" x="312" y="8" width="117" height="62"/></g><g transform="translate(-4,2) scale(1,1)"><path fill="none" stroke="#000000" d="M 312 8 L 429 8 L 429 70 L 312 70 L 312 8 Z Z" stroke-miterlimit="10"/></g><g transform="translate(-4,2) scale(1,1)"><rect fill="#ffffff" stroke="none" x="312" y="8" width="117" height="62"/></g><g transform="translate(-4,2) scale(1,1)"><path fill="none" stroke="#000000" d="M 312 8 L 429 8 L 429 70 L 312 70 L 312 8 Z Z" stroke-miterlimit="10"/></g><g transform="translate(-4,2) scale(1,1)"><path fill="none" stroke="#000000" d="M 312 33 L 429 33" stroke-miterlimit="10"/></g><g transform="translate(-4,2) scale(1,1)"><g><path fill="none" stroke="none"/><text fill="#000000" stroke="none" font-family="Arial" font-size="13px" font-style="normal" font-weight="bold" text-decoration="none" x="355" y="27.5">Entry</text><path fill="none" stroke="#000000" d="M 387 27.5 L 354 27.5" stroke-miterlimit="10"/></g></g><g transform="translate(-4,2) scale(1,1)"><g><path fill="none" stroke="none"/><text fill="#000000" stroke="none" font-family="Arial" font-size="13px" font-style="normal" font-weight="normal" text-decoration="none" x="317" y="50.5">+message = "agg"</text></g></g><g transform="translate(-4,2) scale(1,1)"><g><path fill="none" stroke="none"/><text fill="#000000" stroke="none" font-family="Arial" font-size="13px" font-style="normal" font-weight="normal" text-decoration="none" x="317" y="65.5">+author = 1235</text></g></g><g transform="translate(-4,2) scale(1,1)"><path fill="none" stroke="#000000" d="M 368 256 L 368 70" stroke-miterlimit="10"/></g><g transform="translate(-4,2) scale(1,1)"><rect fill="#C0C0C0" stroke="none" x="463" y="87" width="131" height="77" opacity="0.2"/></g><g transform="translate(-4,2) scale(1,1)"><rect fill="#ffffff" stroke="none" x="456" y="80" width="131" height="77"/></g><g transform="translate(-4,2) scale(1,1)"><path fill="none" stroke="#000000" d="M 456 80 L 587 80 L 587 157 L 456 157 L 456 80 Z Z" stroke-miterlimit="10"/></g><g transform="translate(-4,2) scale(1,1)"><rect fill="#ffffff" stroke="none" x="456" y="80" width="131" height="77"/></g><g transform="translate(-4,2) scale(1,1)"><path fill="none" stroke="#000000" d="M 456 80 L 587 80 L 587 157 L 456 157 L 456 80 Z Z" stroke-miterlimit="10"/></g><g transform="translate(-4,2) scale(1,1)"><path fill="none" stroke="#000000" d="M 456 105 L 587 105" stroke-miterlimit="10"/></g><g transform="translate(-4,2) scale(1,1)"><g><path fill="none" stroke="none"/><text fill="#000000" stroke="none" font-family="Arial" font-size="13px" font-style="normal" font-weight="bold" text-decoration="none" x="506" y="99.5">Entry</text><path fill="none" stroke="#000000" d="M 538 99.5 L 505 99.5" stroke-miterlimit="10"/></g></g><g transform="translate(-4,2) scale(1,1)"><g><path fill="none" stroke="none"/><text fill="#000000" stroke="none" font-family="Arial" font-size="13px" font-style="normal" font-weight="normal" text-decoration="none" x="461" y="122.5">+message = "agggg"</text></g></g><g transform="translate(-4,2) scale(1,1)"><g><path fill="none" stroke="none"/><text fill="#000000" stroke="none" font-family="Arial" font-size="13px" font-style="normal" font-weight="normal" text-decoration="none" x="461" y="137.5">+author = 2</text></g></g><g transform="translate(-4,2) scale(1,1)"><g><path fill="none" stroke="none"/><text fill="#000000" stroke="none" font-family="Arial" font-size="13px" font-style="normal" font-weight="normal" text-decoration="none" x="461" y="152.5">+file = "a.jpg"</text></g></g><g transform="translate(-4,2) scale(1,1)"><path fill="none" stroke="#000000" d="M 392 256 L 392 111 L 456 111" stroke-miterlimit="10"/></g><g transform="translate(-4,2) scale(1,1)"><rect fill="#C0C0C0" stroke="none" x="42" y="580" width="228" height="77" opacity="0.2"/></g><g transform="translate(-4,2) scale(1,1)"><rect fill="#ffffff" stroke="none" x="35" y="573" width="228" height="77"/></g><g transform="translate(-4,2) scale(1,1)"><path fill="none" stroke="#000000" d="M 35 573 L 263 573 L 263 650 L 35 650 L 35 573 Z Z" stroke-miterlimit="10"/></g><g transform="translate(-4,2) scale(1,1)"><rect fill="#ffffff" stroke="none" x="35" y="573" width="228" height="77"/></g><g transform="translate(-4,2) scale(1,1)"><path fill="none" stroke="#000000" d="M 35 573 L 263 573 L 263 650 L 35 650 L 35 573 Z Z" stroke-miterlimit="10"/></g><g transform="translate(-4,2) scale(1,1)"><path fill="none" stroke="#000000" d="M 35 598 L 263 598" stroke-miterlimit="10"/></g><g transform="translate(-4,2) scale(1,1)"><g><path fill="none" stroke="none"/><text fill="#000000" stroke="none" font-family="Arial" font-size="13px" font-style="normal" font-weight="bold" text-decoration="none" x="126.5" y="592.5">Student</text><path fill="none" stroke="#000000" d="M 173 592.5 L 125 592.5" stroke-miterlimit="10"/></g></g><g transform="translate(-4,2) scale(1,1)"><g><path fill="none" stroke="none"/><text fill="#000000" stroke="none" font-family="Arial" font-size="13px" font-style="normal" font-weight="normal" text-decoration="none" x="40" y="615.5">+name = "Erik Regla"</text></g></g><g transform="translate(-4,2) scale(1,1)"><g><path fill="none" stroke="none"/><text fill="#000000" stroke="none" font-family="Arial" font-size="13px" font-style="normal" font-weight="normal" text-decoration="none" x="40" y="630.5">+ID = 1235</text></g></g><g transform="translate(-4,2) scale(1,1)"><g><path fill="none" stroke="none"/><text fill="#000000" stroke="none" font-family="Arial" font-size="13px" font-style="normal" font-weight="normal" text-decoration="none" x="40" y="645.5">+email = eregla09@alumnos.utalca.cl</text></g></g><g transform="translate(-4,2) scale(1,1)"><rect fill="#C0C0C0" stroke="none" x="21" y="264" width="168" height="77" opacity="0.2"/></g><g transform="translate(-4,2) scale(1,1)"><rect fill="#ffffff" stroke="none" x="14" y="257" width="168" height="77"/></g><g transform="translate(-4,2) scale(1,1)"><path fill="none" stroke="#000000" d="M 14 257 L 182 257 L 182 334 L 14 334 L 14 257 Z Z" stroke-miterlimit="10"/></g><g transform="translate(-4,2) scale(1,1)"><rect fill="#ffffff" stroke="none" x="14" y="257" width="168" height="77"/></g><g transform="translate(-4,2) scale(1,1)"><path fill="none" stroke="#000000" d="M 14 257 L 182 257 L 182 334 L 14 334 L 14 257 Z Z" stroke-miterlimit="10"/></g><g transform="translate(-4,2) scale(1,1)"><path fill="none" stroke="#000000" d="M 14 282 L 182 282" stroke-miterlimit="10"/></g><g transform="translate(-4,2) scale(1,1)"><g><path fill="none" stroke="none"/><text fill="#000000" stroke="none" font-family="Arial" font-size="13px" font-style="normal" font-weight="bold" text-decoration="none" x="70" y="276.5">Professor</text><path fill="none" stroke="#000000" d="M 128 276.5 L 68 276.5" stroke-miterlimit="10"/></g></g><g transform="translate(-4,2) scale(1,1)"><g><path fill="none" stroke="none"/><text fill="#000000" stroke="none" font-family="Arial" font-size="13px" font-style="normal" font-weight="normal" text-decoration="none" x="19" y="299.5">+name = "Edgardo Ortiz"</text></g></g><g transform="translate(-4,2) scale(1,1)"><g><path fill="none" stroke="none"/><text fill="#000000" stroke="none" font-family="Arial" font-size="13px" font-style="normal" font-weight="normal" text-decoration="none" x="19" y="314.5">+ID = 2</text></g></g><g transform="translate(-4,2) scale(1,1)"><g><path fill="none" stroke="none"/><text fill="#000000" stroke="none" font-family="Arial" font-size="13px" font-style="normal" font-weight="normal" text-decoration="none" x="19" y="329.5">+email = "eortiz@utalca.cl"</text></g></g><g transform="translate(-4,2) scale(1,1)"><rect fill="#C0C0C0" stroke="none" x="31" y="423" width="189" height="77" opacity="0.2"/></g><g transform="translate(-4,2) scale(1,1)"><rect fill="#ffffff" stroke="none" x="24" y="416" width="189" height="77"/></g><g transform="translate(-4,2) scale(1,1)"><path fill="none" stroke="#000000" d="M 24 416 L 213 416 L 213 493 L 24 493 L 24 416 Z Z" stroke-miterlimit="10"/></g><g transform="translate(-4,2) scale(1,1)"><rect fill="#ffffff" stroke="none" x="24" y="416" width="189" height="77"/></g><g transform="translate(-4,2) scale(1,1)"><path fill="none" stroke="#000000" d="M 24 416 L 213 416 L 213 493 L 24 493 L 24 416 Z Z" stroke-miterlimit="10"/></g><g transform="translate(-4,2) scale(1,1)"><path fill="none" stroke="#000000" d="M 24 441 L 213 441" stroke-miterlimit="10"/></g><g transform="translate(-4,2) scale(1,1)"><g><path fill="none" stroke="none"/><text fill="#000000" stroke="none" font-family="Arial" font-size="13px" font-style="normal" font-weight="bold" text-decoration="none" x="98" y="435.5">Course</text><path fill="none" stroke="#000000" d="M 140.5 435.5 L 96.5 435.5" stroke-miterlimit="10"/></g></g><g transform="translate(-4,2) scale(1,1)"><g><path fill="none" stroke="none"/><text fill="#000000" stroke="none" font-family="Arial" font-size="13px" font-style="normal" font-weight="normal" text-decoration="none" x="29" y="458.5">+title = "Software Architecture"</text></g></g><g transform="translate(-4,2) scale(1,1)"><g><path fill="none" stroke="none"/><text fill="#000000" stroke="none" font-family="Arial" font-size="13px" font-style="normal" font-weight="normal" text-decoration="none" x="29" y="473.5">+ID = 1234</text></g></g><g transform="translate(-4,2) scale(1,1)"><g><path fill="none" stroke="none"/><text fill="#000000" stroke="none" font-family="Arial" font-size="13px" font-style="normal" font-weight="normal" text-decoration="none" x="29" y="488.5">+revision = 32</text></g></g><g transform="translate(-4,2) scale(1,1)"><path fill="none" stroke="#000000" d="M 103 416 L 103 334" stroke-miterlimit="10"/></g><g transform="translate(-4,2) scale(1,1)"><path fill="none" stroke="#000000" d="M 126 493 L 126 573" stroke-miterlimit="10"/></g><g transform="translate(-4,2) scale(1,1)"><rect fill="#C0C0C0" stroke="none" x="563" y="461" width="170" height="122" opacity="0.2"/></g><g transform="translate(-4,2) scale(1,1)"><rect fill="#ffffff" stroke="none" x="556" y="454" width="170" height="122"/></g><g transform="translate(-4,2) scale(1,1)"><path fill="none" stroke="#000000" d="M 556 454 L 726 454 L 726 576 L 556 576 L 556 454 Z Z" stroke-miterlimit="10"/></g><g transform="translate(-4,2) scale(1,1)"><rect fill="#ffffff" stroke="none" x="556" y="454" width="170" height="122"/></g><g transform="translate(-4,2) scale(1,1)"><path fill="none" stroke="#000000" d="M 556 454 L 726 454 L 726 576 L 556 576 L 556 454 Z Z" stroke-miterlimit="10"/></g><g transform="translate(-4,2) scale(1,1)"><path fill="none" stroke="#000000" d="M 556 479 L 726 479" stroke-miterlimit="10"/></g><g transform="translate(-4,2) scale(1,1)"><g><path fill="none" stroke="none"/><text fill="#000000" stroke="none" font-family="Arial" font-size="13px" font-style="normal" font-weight="bold" text-decoration="none" x="575" y="473.5">GradedFileAssignment</text><path fill="none" stroke="#000000" d="M 712 473.5 L 570 473.5" stroke-miterlimit="10"/></g></g><g transform="translate(-4,2) scale(1,1)"><g><path fill="none" stroke="none"/><text fill="#000000" stroke="none" font-family="Arial" font-size="13px" font-style="normal" font-weight="normal" text-decoration="none" x="561" y="496.5">+name = "Report"</text></g></g><g transform="translate(-4,2) scale(1,1)"><g><path fill="none" stroke="none"/><text fill="#000000" stroke="none" font-family="Arial" font-size="13px" font-style="normal" font-weight="normal" text-decoration="none" x="561" y="511.5">+due_date = 30 dec 2016</text></g></g><g transform="translate(-4,2) scale(1,1)"><g><path fill="none" stroke="none"/><text fill="#000000" stroke="none" font-family="Arial" font-size="13px" font-style="normal" font-weight="normal" text-decoration="none" x="561" y="526.5">+exceed_due_date = false</text></g></g><g transform="translate(-4,2) scale(1,1)"><g><path fill="none" stroke="none"/><text fill="#000000" stroke="none" font-family="Arial" font-size="13px" font-style="normal" font-weight="normal" text-decoration="none" x="561" y="541.5">+closed = false</text></g></g><g transform="translate(-4,2) scale(1,1)"><g><path fill="none" stroke="none"/><text fill="#000000" stroke="none" font-family="Arial" font-size="13px" font-style="normal" font-weight="normal" text-decoration="none" x="561" y="556.5">+team_min_size = 1</text></g></g><g transform="translate(-4,2) scale(1,1)"><g><path fill="none" stroke="none"/><text fill="#000000" stroke="none" font-family="Arial" font-size="13px" font-style="normal" font-weight="normal" text-decoration="none" x="561" y="571.5">+team_max_size = 2</text></g></g><g transform="translate(-4,2) scale(1,1)"><path fill="none" stroke="#000000" d="M 568 453 L 409 319" stroke-miterlimit="10"/></g><g transform="translate(-4,2) scale(1,1)"><rect fill="#C0C0C0" stroke="none" x="303" y="439" width="122" height="62" opacity="0.2"/></g><g transform="translate(-4,2) scale(1,1)"><rect fill="#ffffff" stroke="none" x="296" y="432" width="122" height="62"/></g><g transform="translate(-4,2) scale(1,1)"><path fill="none" stroke="#000000" d="M 296 432 L 418 432 L 418 494 L 296 494 L 296 432 Z Z" stroke-miterlimit="10"/></g><g transform="translate(-4,2) scale(1,1)"><rect fill="#ffffff" stroke="none" x="296" y="432" width="122" height="62"/></g><g transform="translate(-4,2) scale(1,1)"><path fill="none" stroke="#000000" d="M 296 432 L 418 432 L 418 494 L 296 494 L 296 432 Z Z" stroke-miterlimit="10"/></g><g transform="translate(-4,2) scale(1,1)"><path fill="none" stroke="#000000" d="M 296 457 L 418 457" stroke-miterlimit="10"/></g><g transform="translate(-4,2) scale(1,1)"><g><path fill="none" stroke="none"/><text fill="#000000" stroke="none" font-family="Arial" font-size="13px" font-style="normal" font-weight="bold" text-decoration="none" x="341" y="451.5">Topic</text><path fill="none" stroke="#000000" d="M 374.5 451.5 L 339.5 451.5" stroke-miterlimit="10"/></g></g><g transform="translate(-4,2) scale(1,1)"><g><path fill="none" stroke="none"/><text fill="#000000" stroke="none" font-family="Arial" font-size="13px" font-style="normal" font-weight="normal" text-decoration="none" x="301" y="474.5">+name = "Unidad1"</text></g></g><g transform="translate(-4,2) scale(1,1)"><g><path fill="none" stroke="none"/><text fill="#000000" stroke="none" font-family="Arial" font-size="13px" font-style="normal" font-weight="normal" text-decoration="none" x="301" y="489.5">+ID = 56</text></g></g><g transform="translate(-4,2) scale(1,1)"><path fill="none" stroke="#000000" d="M 419 474 L 555 499" stroke-miterlimit="10"/></g><g transform="translate(-4,2) scale(1,1)"><path fill="none" stroke="#000000" d="M 295 461 L 214 458" stroke-miterlimit="10"/></g></g></svg>