<svg version="1.1" xmlns="http://www.w3.org/2000/svg" xmlns:xlink="http://www.w3.org/1999/xlink" width="980" height="620"><defs/><g><g transform="translate(-350,-118) scale(1,1)"><rect fill="#C0C0C0" stroke="none" x="367" y="135" width="384" height="15" opacity="0.2"/></g><g transform="translate(-350,-118) scale(1,1)"><rect fill="#C0C0C0" stroke="none" x="367" y="149" width="960" height="586" opacity="0.2"/></g><g transform="translate(-350,-118) scale(1,1)"><rect fill="#ffffff" stroke="none" x="360" y="143" width="960" height="585"/></g><g transform="translate(-350,-118) scale(1,1)"><path fill="none" stroke="#000000" d="M 360 143 L 1320 143 L 1320 728 L 360 728 L 360 143 Z Z" stroke-miterlimit="10"/></g><g transform="translate(-350,-118) scale(1,1)"><rect fill="#ffffff" stroke="none" x="360" y="128" width="384" height="15"/></g><g transform="translate(-350,-118) scale(1,1)"><path fill="none" stroke="#000000" d="M 360 128 L 744 128 L 744 143 L 360 143 L 360 128 Z Z" stroke-miterlimit="10"/></g><g transform="translate(-350,-118) scale(1,1)"><rect fill="#ffffff" stroke="none" x="360" y="142" width="960" height="586"/></g><g transform="translate(-350,-118) scale(1,1)"><path fill="none" stroke="#000000" d="M 360 142 L 1320 142 L 1320 728 L 360 728 L 360 142 Z Z" stroke-miterlimit="10"/></g><g transform="translate(-350,-118) scale(1,1)"><g><path fill="none" stroke="none"/><text fill="#000000" stroke="none" font-family="Arial" font-size="13px" font-style="normal" font-weight="bold" text-decoration="none" x="807.5" y="162.5">Educandus</text></g></g><g transform="translate(-350,-118) scale(1,1)"><rect fill="#C0C0C0" stroke="none" x="543" y="191" width="83.20000000000005" height="15" opacity="0.2"/></g><g transform="translate(-350,-118) scale(1,1)"><rect fill="#C0C0C0" stroke="none" x="543" y="205" width="208" height="209" opacity="0.2"/></g><g transform="translate(-350,-118) scale(1,1)"><rect fill="#ffffff" stroke="none" x="536" y="199" width="208" height="208"/></g><g transform="translate(-350,-118) scale(1,1)"><path fill="none" stroke="#000000" d="M 536 199 L 744 199 L 744 407 L 536 407 L 536 199 Z Z" stroke-miterlimit="10"/></g><g transform="translate(-350,-118) scale(1,1)"><rect fill="#ffffff" stroke="none" x="536" y="184" width="83.20000000000005" height="15"/></g><g transform="translate(-350,-118) scale(1,1)"><path fill="none" stroke="#000000" d="M 536 184 L 619.2 184 L 619.2 199 L 536 199 L 536 184 Z Z" stroke-miterlimit="10"/></g><g transform="translate(-350,-118) scale(1,1)"><rect fill="#ffffff" stroke="none" x="536" y="198" width="208" height="209"/></g><g transform="translate(-350,-118) scale(1,1)"><path fill="none" stroke="#000000" d="M 536 198 L 744 198 L 744 407 L 536 407 L 536 198 Z Z" stroke-miterlimit="10"/></g><g transform="translate(-350,-118) scale(1,1)"><g><path fill="none" stroke="none"/><text fill="#000000" stroke="none" font-family="Arial" font-size="13px" font-style="normal" font-weight="bold" text-decoration="none" x="619" y="218.5">domain</text></g></g><g transform="translate(-350,-118) scale(1,1)"><rect fill="#C0C0C0" stroke="none" x="591" y="239" width="30.399999999999977" height="15" opacity="0.2"/></g><g transform="translate(-350,-118) scale(1,1)"><rect fill="#C0C0C0" stroke="none" x="591" y="253" width="76" height="25" opacity="0.2"/></g><g transform="translate(-350,-118) scale(1,1)"><rect fill="#ffffff" stroke="none" x="584" y="247" width="76" height="24"/></g><g transform="translate(-350,-118) scale(1,1)"><path fill="none" stroke="#000000" d="M 584 247 L 660 247 L 660 271 L 584 271 L 584 247 Z Z" stroke-miterlimit="10"/></g><g transform="translate(-350,-118) scale(1,1)"><rect fill="#ffffff" stroke="none" x="584" y="232" width="30.399999999999977" height="15"/></g><g transform="translate(-350,-118) scale(1,1)"><path fill="none" stroke="#000000" d="M 584 232 L 614.4 232 L 614.4 247 L 584 247 L 584 232 Z Z" stroke-miterlimit="10"/></g><g transform="translate(-350,-118) scale(1,1)"><rect fill="#ffffff" stroke="none" x="584" y="246" width="76" height="25"/></g><g transform="translate(-350,-118) scale(1,1)"><path fill="none" stroke="#000000" d="M 584 246 L 660 246 L 660 271 L 584 271 L 584 246 Z Z" stroke-miterlimit="10"/></g><g transform="translate(-350,-118) scale(1,1)"><g><path fill="none" stroke="none"/><text fill="#000000" stroke="none" font-family="Arial" font-size="13px" font-style="normal" font-weight="bold" text-decoration="none" x="596.5" y="266.5">Calendar</text></g></g><g transform="translate(-350,-118) scale(1,1)"><rect fill="#C0C0C0" stroke="none" x="391" y="535" width="40.80000000000001" height="15" opacity="0.2"/></g><g transform="translate(-350,-118) scale(1,1)"><rect fill="#C0C0C0" stroke="none" x="391" y="549" width="102" height="25" opacity="0.2"/></g><g transform="translate(-350,-118) scale(1,1)"><rect fill="#ffffff" stroke="none" x="384" y="543" width="102" height="24"/></g><g transform="translate(-350,-118) scale(1,1)"><path fill="none" stroke="#000000" d="M 384 543 L 486 543 L 486 567 L 384 567 L 384 543 Z Z" stroke-miterlimit="10"/></g><g transform="translate(-350,-118) scale(1,1)"><rect fill="#ffffff" stroke="none" x="384" y="528" width="40.80000000000001" height="15"/></g><g transform="translate(-350,-118) scale(1,1)"><path fill="none" stroke="#000000" d="M 384 528 L 424.8 528 L 424.8 543 L 384 543 L 384 528 Z Z" stroke-miterlimit="10"/></g><g transform="translate(-350,-118) scale(1,1)"><rect fill="#ffffff" stroke="none" x="384" y="542" width="102" height="25"/></g><g transform="translate(-350,-118) scale(1,1)"><path fill="none" stroke="#000000" d="M 384 542 L 486 542 L 486 567 L 384 567 L 384 542 Z Z" stroke-miterlimit="10"/></g><g transform="translate(-350,-118) scale(1,1)"><g><path fill="none" stroke="none"/><text fill="#000000" stroke="none" font-family="Arial" font-size="13px" font-style="normal" font-weight="bold" text-decoration="none" x="400.5" y="562.5">Persistance</text></g></g><g transform="translate(-350,-118) scale(1,1)"><rect fill="#C0C0C0" stroke="none" x="559" y="351" width="27.200000000000045" height="15" opacity="0.2"/></g><g transform="translate(-350,-118) scale(1,1)"><rect fill="#C0C0C0" stroke="none" x="559" y="365" width="68" height="25" opacity="0.2"/></g><g transform="translate(-350,-118) scale(1,1)"><rect fill="#ffffff" stroke="none" x="552" y="359" width="68" height="24"/></g><g transform="translate(-350,-118) scale(1,1)"><path fill="none" stroke="#000000" d="M 552 359 L 620 359 L 620 383 L 552 383 L 552 359 Z Z" stroke-miterlimit="10"/></g><g transform="translate(-350,-118) scale(1,1)"><rect fill="#ffffff" stroke="none" x="552" y="344" width="27.200000000000045" height="15"/></g><g transform="translate(-350,-118) scale(1,1)"><path fill="none" stroke="#000000" d="M 552 344 L 579.2 344 L 579.2 359 L 552 359 L 552 344 Z Z" stroke-miterlimit="10"/></g><g transform="translate(-350,-118) scale(1,1)"><rect fill="#ffffff" stroke="none" x="552" y="358" width="68" height="25"/></g><g transform="translate(-350,-118) scale(1,1)"><path fill="none" stroke="#000000" d="M 552 358 L 620 358 L 620 383 L 552 383 L 552 358 Z Z" stroke-miterlimit="10"/></g><g transform="translate(-350,-118) scale(1,1)"><g><path fill="none" stroke="none"/><text fill="#000000" stroke="none" font-family="Arial" font-size="13px" font-style="normal" font-weight="bold" text-decoration="none" x="558.5" y="378.5">Resource</text></g></g><g transform="translate(-350,-118) scale(1,1)"><rect fill="#C0C0C0" stroke="none" x="559" y="295" width="27.200000000000045" height="15" opacity="0.2"/></g><g transform="translate(-350,-118) scale(1,1)"><rect fill="#C0C0C0" stroke="none" x="559" y="309" width="68" height="25" opacity="0.2"/></g><g transform="translate(-350,-118) scale(1,1)"><rect fill="#ffffff" stroke="none" x="552" y="303" width="68" height="24"/></g><g transform="translate(-350,-118) scale(1,1)"><path fill="none" stroke="#000000" d="M 552 303 L 620 303 L 620 327 L 552 327 L 552 303 Z Z" stroke-miterlimit="10"/></g><g transform="translate(-350,-118) scale(1,1)"><rect fill="#ffffff" stroke="none" x="552" y="288" width="27.200000000000045" height="15"/></g><g transform="translate(-350,-118) scale(1,1)"><path fill="none" stroke="#000000" d="M 552 288 L 579.2 288 L 579.2 303 L 552 303 L 552 288 Z Z" stroke-miterlimit="10"/></g><g transform="translate(-350,-118) scale(1,1)"><rect fill="#ffffff" stroke="none" x="552" y="302" width="68" height="25"/></g><g transform="translate(-350,-118) scale(1,1)"><path fill="none" stroke="#000000" d="M 552 302 L 620 302 L 620 327 L 552 327 L 552 302 Z Z" stroke-miterlimit="10"/></g><g transform="translate(-350,-118) scale(1,1)"><g><path fill="none" stroke="none"/><text fill="#000000" stroke="none" font-family="Arial" font-size="13px" font-style="normal" font-weight="bold" text-decoration="none" x="565.5" y="322.5">Course</text></g></g><g transform="translate(-350,-118) scale(1,1)"><rect fill="#C0C0C0" stroke="none" x="647" y="351" width="27.200000000000045" height="15" opacity="0.2"/></g><g transform="translate(-350,-118) scale(1,1)"><rect fill="#C0C0C0" stroke="none" x="647" y="365" width="68" height="25" opacity="0.2"/></g><g transform="translate(-350,-118) scale(1,1)"><rect fill="#ffffff" stroke="none" x="640" y="359" width="68" height="24"/></g><g transform="translate(-350,-118) scale(1,1)"><path fill="none" stroke="#000000" d="M 640 359 L 708 359 L 708 383 L 640 383 L 640 359 Z Z" stroke-miterlimit="10"/></g><g transform="translate(-350,-118) scale(1,1)"><rect fill="#ffffff" stroke="none" x="640" y="344" width="27.200000000000045" height="15"/></g><g transform="translate(-350,-118) scale(1,1)"><path fill="none" stroke="#000000" d="M 640 344 L 667.2 344 L 667.2 359 L 640 359 L 640 344 Z Z" stroke-miterlimit="10"/></g><g transform="translate(-350,-118) scale(1,1)"><rect fill="#ffffff" stroke="none" x="640" y="358" width="68" height="25"/></g><g transform="translate(-350,-118) scale(1,1)"><path fill="none" stroke="#000000" d="M 640 358 L 708 358 L 708 383 L 640 383 L 640 358 Z Z" stroke-miterlimit="10"/></g><g transform="translate(-350,-118) scale(1,1)"><g><path fill="none" stroke="none"/><text fill="#000000" stroke="none" font-family="Arial" font-size="13px" font-style="normal" font-weight="bold" text-decoration="none" x="655.5" y="378.5">Forum</text></g></g><g transform="translate(-350,-118) scale(1,1)"><rect fill="#C0C0C0" stroke="none" x="647" y="295" width="27.200000000000045" height="15" opacity="0.2"/></g><g transform="translate(-350,-118) scale(1,1)"><rect fill="#C0C0C0" stroke="none" x="647" y="309" width="68" height="25" opacity="0.2"/></g><g transform="translate(-350,-118) scale(1,1)"><rect fill="#ffffff" stroke="none" x="640" y="303" width="68" height="24"/></g><g transform="translate(-350,-118) scale(1,1)"><path fill="none" stroke="#000000" d="M 640 303 L 708 303 L 708 327 L 640 327 L 640 303 Z Z" stroke-miterlimit="10"/></g><g transform="translate(-350,-118) scale(1,1)"><rect fill="#ffffff" stroke="none" x="640" y="288" width="27.200000000000045" height="15"/></g><g transform="translate(-350,-118) scale(1,1)"><path fill="none" stroke="#000000" d="M 640 288 L 667.2 288 L 667.2 303 L 640 303 L 640 288 Z Z" stroke-miterlimit="10"/></g><g transform="translate(-350,-118) scale(1,1)"><rect fill="#ffffff" stroke="none" x="640" y="302" width="68" height="25"/></g><g transform="translate(-350,-118) scale(1,1)"><path fill="none" stroke="#000000" d="M 640 302 L 708 302 L 708 327 L 640 327 L 640 302 Z Z" stroke-miterlimit="10"/></g><g transform="translate(-350,-118) scale(1,1)"><g><path fill="none" stroke="none"/><text fill="#000000" stroke="none" font-family="Arial" font-size="13px" font-style="normal" font-weight="bold" text-decoration="none" x="650" y="322.5">Account</text></g></g><g transform="translate(-350,-118) scale(1,1)"><rect fill="#C0C0C0" stroke="none" x="783" y="183" width="179.20000000000005" height="15" opacity="0.2"/></g><g transform="translate(-350,-118) scale(1,1)"><rect fill="#C0C0C0" stroke="none" x="783" y="197" width="448" height="210" opacity="0.2"/></g><g transform="translate(-350,-118) scale(1,1)"><rect fill="#ffffff" stroke="none" x="776" y="191" width="448" height="209"/></g><g transform="translate(-350,-118) scale(1,1)"><path fill="none" stroke="#000000" d="M 776 191 L 1224 191 L 1224 400 L 776 400 L 776 191 Z Z" stroke-miterlimit="10"/></g><g transform="translate(-350,-118) scale(1,1)"><rect fill="#ffffff" stroke="none" x="776" y="176" width="179.20000000000005" height="15"/></g><g transform="translate(-350,-118) scale(1,1)"><path fill="none" stroke="#000000" d="M 776 176 L 955.2 176 L 955.2 191 L 776 191 L 776 176 Z Z" stroke-miterlimit="10"/></g><g transform="translate(-350,-118) scale(1,1)"><rect fill="#ffffff" stroke="none" x="776" y="190" width="448" height="210"/></g><g transform="translate(-350,-118) scale(1,1)"><path fill="none" stroke="#000000" d="M 776 190 L 1224 190 L 1224 400 L 776 400 L 776 190 Z Z" stroke-miterlimit="10"/></g><g transform="translate(-350,-118) scale(1,1)"><g><path fill="none" stroke="none"/><text fill="#000000" stroke="none" font-family="Arial" font-size="13px" font-style="normal" font-weight="bold" text-decoration="none" x="964.5" y="210.5">presentation</text></g></g><g transform="translate(-350,-118) scale(1,1)"><rect fill="#C0C0C0" stroke="none" x="647" y="463" width="214.39999999999998" height="15" opacity="0.2"/></g><g transform="translate(-350,-118) scale(1,1)"><rect fill="#C0C0C0" stroke="none" x="647" y="477" width="536" height="242" opacity="0.2"/></g><g transform="translate(-350,-118) scale(1,1)"><rect fill="#ffffff" stroke="none" x="640" y="471" width="536" height="241"/></g><g transform="translate(-350,-118) scale(1,1)"><path fill="none" stroke="#000000" d="M 640 471 L 1176 471 L 1176 712 L 640 712 L 640 471 Z Z" stroke-miterlimit="10"/></g><g transform="translate(-350,-118) scale(1,1)"><rect fill="#ffffff" stroke="none" x="640" y="456" width="214.39999999999998" height="15"/></g><g transform="translate(-350,-118) scale(1,1)"><path fill="none" stroke="#000000" d="M 640 456 L 854.4 456 L 854.4 471 L 640 471 L 640 456 Z Z" stroke-miterlimit="10"/></g><g transform="translate(-350,-118) scale(1,1)"><rect fill="#ffffff" stroke="none" x="640" y="470" width="536" height="242"/></g><g transform="translate(-350,-118) scale(1,1)"><path fill="none" stroke="#000000" d="M 640 470 L 1176 470 L 1176 712 L 640 712 L 640 470 Z Z" stroke-miterlimit="10"/></g><g transform="translate(-350,-118) scale(1,1)"><g><path fill="none" stroke="none"/><text fill="#000000" stroke="none" font-family="Arial" font-size="13px" font-style="normal" font-weight="bold" text-decoration="none" x="890" y="490.5">server</text></g></g><g transform="translate(-350,-118) scale(1,1)"><rect fill="#C0C0C0" stroke="none" x="819" y="505" width="27.200000000000045" height="15" opacity="0.2"/></g><g transform="translate(-350,-118) scale(1,1)"><rect fill="#C0C0C0" stroke="none" x="819" y="519" width="68" height="25" opacity="0.2"/></g><g transform="translate(-350,-118) scale(1,1)"><rect fill="#ffffff" stroke="none" x="812" y="513" width="68" height="24"/></g><g transform="translate(-350,-118) scale(1,1)"><path fill="none" stroke="#000000" d="M 812 513 L 880 513 L 880 537 L 812 537 L 812 513 Z Z" stroke-miterlimit="10"/></g><g transform="translate(-350,-118) scale(1,1)"><rect fill="#ffffff" stroke="none" x="812" y="498" width="27.200000000000045" height="15"/></g><g transform="translate(-350,-118) scale(1,1)"><path fill="none" stroke="#000000" d="M 812 498 L 839.2 498 L 839.2 513 L 812 513 L 812 498 Z Z" stroke-miterlimit="10"/></g><g transform="translate(-350,-118) scale(1,1)"><rect fill="#ffffff" stroke="none" x="812" y="512" width="68" height="25"/></g><g transform="translate(-350,-118) scale(1,1)"><path fill="none" stroke="#000000" d="M 812 512 L 880 512 L 880 537 L 812 537 L 812 512 Z Z" stroke-miterlimit="10"/></g><g transform="translate(-350,-118) scale(1,1)"><g><path fill="none" stroke="none"/><text fill="#000000" stroke="none" font-family="Arial" font-size="13px" font-style="normal" font-weight="bold" text-decoration="none" x="830.5" y="532.5">Login</text></g></g><g transform="translate(-350,-118) scale(1,1)"><rect fill="#C0C0C0" stroke="none" x="907" y="505" width="48" height="15" opacity="0.2"/></g><g transform="translate(-350,-118) scale(1,1)"><rect fill="#C0C0C0" stroke="none" x="907" y="519" width="120" height="98" opacity="0.2"/></g><g transform="translate(-350,-118) scale(1,1)"><rect fill="#ffffff" stroke="none" x="900" y="513" width="120" height="97"/></g><g transform="translate(-350,-118) scale(1,1)"><path fill="none" stroke="#000000" d="M 900 513 L 1020 513 L 1020 610 L 900 610 L 900 513 Z Z" stroke-miterlimit="10"/></g><g transform="translate(-350,-118) scale(1,1)"><rect fill="#ffffff" stroke="none" x="900" y="498" width="48" height="15"/></g><g transform="translate(-350,-118) scale(1,1)"><path fill="none" stroke="#000000" d="M 900 498 L 948 498 L 948 513 L 900 513 L 900 498 Z Z" stroke-miterlimit="10"/></g><g transform="translate(-350,-118) scale(1,1)"><rect fill="#ffffff" stroke="none" x="900" y="512" width="120" height="98"/></g><g transform="translate(-350,-118) scale(1,1)"><path fill="none" stroke="#000000" d="M 900 512 L 1020 512 L 1020 610 L 900 610 L 900 512 Z Z" stroke-miterlimit="10"/></g><g transform="translate(-350,-118) scale(1,1)"><g><path fill="none" stroke="none"/><text fill="#000000" stroke="none" font-family="Arial" font-size="13px" font-style="normal" font-weight="bold" text-decoration="none" x="936.5" y="532.5">Browser</text></g></g><g transform="translate(-350,-118) scale(1,1)"><rect fill="#C0C0C0" stroke="none" x="931" y="561" width="28.399999999999977" height="15" opacity="0.2"/></g><g transform="translate(-350,-118) scale(1,1)"><rect fill="#C0C0C0" stroke="none" x="931" y="575" width="71" height="25" opacity="0.2"/></g><g transform="translate(-350,-118) scale(1,1)"><rect fill="#ffffff" stroke="none" x="924" y="569" width="71" height="24"/></g><g transform="translate(-350,-118) scale(1,1)"><path fill="none" stroke="#000000" d="M 924 569 L 995 569 L 995 593 L 924 593 L 924 569 Z Z" stroke-miterlimit="10"/></g><g transform="translate(-350,-118) scale(1,1)"><rect fill="#ffffff" stroke="none" x="924" y="554" width="28.399999999999977" height="15"/></g><g transform="translate(-350,-118) scale(1,1)"><path fill="none" stroke="#000000" d="M 924 554 L 952.4 554 L 952.4 569 L 924 569 L 924 554 Z Z" stroke-miterlimit="10"/></g><g transform="translate(-350,-118) scale(1,1)"><rect fill="#ffffff" stroke="none" x="924" y="568" width="71" height="25"/></g><g transform="translate(-350,-118) scale(1,1)"><path fill="none" stroke="#000000" d="M 924 568 L 995 568 L 995 593 L 924 593 L 924 568 Z Z" stroke-miterlimit="10"/></g><g transform="translate(-350,-118) scale(1,1)"><g><path fill="none" stroke="none"/><text fill="#000000" stroke="none" font-family="Arial" font-size="13px" font-style="normal" font-weight="bold" text-decoration="none" x="939" y="588.5">Search</text></g></g><g transform="translate(-350,-118) scale(1,1)"><rect fill="#C0C0C0" stroke="none" x="1051" y="521" width="49.59999999999991" height="15" opacity="0.2"/></g><g transform="translate(-350,-118) scale(1,1)"><rect fill="#C0C0C0" stroke="none" x="1051" y="535" width="124" height="112" opacity="0.2"/></g><g transform="translate(-350,-118) scale(1,1)"><rect fill="#ffffff" stroke="none" x="1044" y="529" width="124" height="111"/></g><g transform="translate(-350,-118) scale(1,1)"><path fill="none" stroke="#000000" d="M 1044 529 L 1168 529 L 1168 640 L 1044 640 L 1044 529 Z Z" stroke-miterlimit="10"/></g><g transform="translate(-350,-118) scale(1,1)"><rect fill="#ffffff" stroke="none" x="1044" y="514" width="49.59999999999991" height="15"/></g><g transform="translate(-350,-118) scale(1,1)"><path fill="none" stroke="#000000" d="M 1044 514 L 1093.6 514 L 1093.6 529 L 1044 529 L 1044 514 Z Z" stroke-miterlimit="10"/></g><g transform="translate(-350,-118) scale(1,1)"><rect fill="#ffffff" stroke="none" x="1044" y="528" width="124" height="112"/></g><g transform="translate(-350,-118) scale(1,1)"><path fill="none" stroke="#000000" d="M 1044 528 L 1168 528 L 1168 640 L 1044 640 L 1044 528 Z Z" stroke-miterlimit="10"/></g><g transform="translate(-350,-118) scale(1,1)"><g><path fill="none" stroke="none"/><text fill="#000000" stroke="none" font-family="Arial" font-size="13px" font-style="normal" font-weight="bold" text-decoration="none" x="1070" y="548.5">Notifications</text></g></g><g transform="translate(-350,-118) scale(1,1)"><path fill="#ffffff" stroke="none" d="M 384 200 L 472 200 L 482 210 L 482 288 L 384 288 L 384 200"/></g><g transform="translate(-350,-118) scale(1,1)"><path fill="none" stroke="#000000" d="M 384 200 L 472 200 L 482 210 L 482 288 L 384 288 L 384 200 L 384 200" stroke-miterlimit="10"/></g><g transform="translate(-350,-118) scale(1,1)"><path fill="none" stroke="#000000" d="M 472 200 L 472 210 L 482 210 L 472 200" stroke-miterlimit="10"/></g><g transform="translate(-350,-118) scale(1,1)"><g><path fill="none" stroke="none"/><text fill="#000000" stroke="none" font-family="Arial" font-size="13px" font-style="normal" font-weight="normal" text-decoration="none" x="389" y="218">This package</text><text fill="#000000" stroke="none" font-family="Arial" font-size="13px" font-style="normal" font-weight="normal" text-decoration="none" x="389" y="231">is used across</text><text fill="#000000" stroke="none" font-family="Arial" font-size="13px" font-style="normal" font-weight="normal" text-decoration="none" x="389" y="244">all others.</text><text fill="#000000" stroke="none" font-family="Arial" font-size="13px" font-style="normal" font-weight="normal" text-decoration="none" x="389" y="257">Global</text><text fill="#000000" stroke="none" font-family="Arial" font-size="13px" font-style="normal" font-weight="normal" text-decoration="none" x="389" y="270">dependency</text></g></g><g transform="translate(-350,-118) scale(1,1)"><path fill="none" stroke="#000000" d="M 535 269 L 484 257" stroke-miterlimit="10" stroke-dasharray="3"/></g><g transform="translate(-350,-118) scale(1,1)"><path fill="#ffffff" stroke="none" d="M 376 384 L 468 384 L 478 394 L 478 498 L 376 498 L 376 384"/></g><g transform="translate(-350,-118) scale(1,1)"><path fill="none" stroke="#000000" d="M 376 384 L 468 384 L 478 394 L 478 498 L 376 498 L 376 384 L 376 384" stroke-miterlimit="10"/></g><g transform="translate(-350,-118) scale(1,1)"><path fill="none" stroke="#000000" d="M 468 384 L 468 394 L 478 394 L 468 384" stroke-miterlimit="10"/></g><g transform="translate(-350,-118) scale(1,1)"><g><path fill="none" stroke="none"/><text fill="#000000" stroke="none" font-family="Arial" font-size="13px" font-style="normal" font-weight="normal" text-decoration="none" x="381" y="402">Not specifying</text><text fill="#000000" stroke="none" font-family="Arial" font-size="13px" font-style="normal" font-weight="normal" text-decoration="none" x="381" y="415">which to use,</text><text fill="#000000" stroke="none" font-family="Arial" font-size="13px" font-style="normal" font-weight="normal" text-decoration="none" x="381" y="428">db or api,</text><text fill="#000000" stroke="none" font-family="Arial" font-size="13px" font-style="normal" font-weight="normal" text-decoration="none" x="381" y="441">because we</text><text fill="#000000" stroke="none" font-family="Arial" font-size="13px" font-style="normal" font-weight="normal" text-decoration="none" x="381" y="454">don't want to tie</text><text fill="#000000" stroke="none" font-family="Arial" font-size="13px" font-style="normal" font-weight="normal" text-decoration="none" x="381" y="467">to them</text></g></g><g transform="translate(-350,-118) scale(1,1)"><path fill="none" stroke="#000000" d="M 433 527 L 431 500" stroke-miterlimit="10" stroke-dasharray="3"/></g><g transform="translate(-350,-118) scale(1,1)"><path fill="none" stroke="#000000" d="M 640 552 L 486 552" stroke-miterlimit="10" stroke-dasharray="3"/></g><g transform="translate(-350,-118) scale(1,1)"><path fill="none" stroke="#000000" d="M 496.16267485762415 547.790482243984 L 486 552 L 496.16267485762415 556.209517756016" stroke-miterlimit="10"/></g><g transform="translate(-350,-118) scale(1,1)"><path fill="#ffffff" stroke="none" d="M 392 576 L 480 576 L 490 586 L 490 651 L 392 651 L 392 576"/></g><g transform="translate(-350,-118) scale(1,1)"><path fill="none" stroke="#000000" d="M 392 576 L 480 576 L 490 586 L 490 651 L 392 651 L 392 576 L 392 576" stroke-miterlimit="10"/></g><g transform="translate(-350,-118) scale(1,1)"><path fill="none" stroke="#000000" d="M 480 576 L 480 586 L 490 586 L 480 576" stroke-miterlimit="10"/></g><g transform="translate(-350,-118) scale(1,1)"><g><path fill="none" stroke="none"/><text fill="#000000" stroke="none" font-family="Arial" font-size="13px" font-style="normal" font-weight="normal" text-decoration="none" x="397" y="594">All the server</text><text fill="#000000" stroke="none" font-family="Arial" font-size="13px" font-style="normal" font-weight="normal" text-decoration="none" x="397" y="607">domain</text><text fill="#000000" stroke="none" font-family="Arial" font-size="13px" font-style="normal" font-weight="normal" text-decoration="none" x="397" y="620">depends on the</text><text fill="#000000" stroke="none" font-family="Arial" font-size="13px" font-style="normal" font-weight="normal" text-decoration="none" x="397" y="633"> pesistance</text></g></g><g transform="translate(-350,-118) scale(1,1)"><path fill="none" stroke="#000000" d="M 563 552 L 492 588" stroke-miterlimit="10" stroke-dasharray="3"/></g><g transform="translate(-350,-118) scale(1,1)"><rect fill="#C0C0C0" stroke="none" x="655" y="511" width="41.200000000000045" height="15" opacity="0.2"/></g><g transform="translate(-350,-118) scale(1,1)"><rect fill="#C0C0C0" stroke="none" x="655" y="525" width="103" height="25" opacity="0.2"/></g><g transform="translate(-350,-118) scale(1,1)"><rect fill="#ffffff" stroke="none" x="648" y="519" width="103" height="24"/></g><g transform="translate(-350,-118) scale(1,1)"><path fill="none" stroke="#000000" d="M 648 519 L 751 519 L 751 543 L 648 543 L 648 519 Z Z" stroke-miterlimit="10"/></g><g transform="translate(-350,-118) scale(1,1)"><rect fill="#ffffff" stroke="none" x="648" y="504" width="41.200000000000045" height="15"/></g><g transform="translate(-350,-118) scale(1,1)"><path fill="none" stroke="#000000" d="M 648 504 L 689.2 504 L 689.2 519 L 648 519 L 648 504 Z Z" stroke-miterlimit="10"/></g><g transform="translate(-350,-118) scale(1,1)"><rect fill="#ffffff" stroke="none" x="648" y="518" width="103" height="25"/></g><g transform="translate(-350,-118) scale(1,1)"><path fill="none" stroke="#000000" d="M 648 518 L 751 518 L 751 543 L 648 543 L 648 518 Z Z" stroke-miterlimit="10"/></g><g transform="translate(-350,-118) scale(1,1)"><g><path fill="none" stroke="none"/><text fill="#000000" stroke="none" font-family="Arial" font-size="13px" font-style="normal" font-weight="bold" text-decoration="none" x="670.5" y="538.5">Scheduler</text></g></g><g transform="translate(-350,-118) scale(1,1)"><rect fill="#C0C0C0" stroke="none" x="655" y="575" width="27.200000000000045" height="15" opacity="0.2"/></g><g transform="translate(-350,-118) scale(1,1)"><rect fill="#C0C0C0" stroke="none" x="655" y="589" width="68" height="25" opacity="0.2"/></g><g transform="translate(-350,-118) scale(1,1)"><rect fill="#ffffff" stroke="none" x="648" y="583" width="68" height="24"/></g><g transform="translate(-350,-118) scale(1,1)"><path fill="none" stroke="#000000" d="M 648 583 L 716 583 L 716 607 L 648 607 L 648 583 Z Z" stroke-miterlimit="10"/></g><g transform="translate(-350,-118) scale(1,1)"><rect fill="#ffffff" stroke="none" x="648" y="568" width="27.200000000000045" height="15"/></g><g transform="translate(-350,-118) scale(1,1)"><path fill="none" stroke="#000000" d="M 648 568 L 675.2 568 L 675.2 583 L 648 583 L 648 568 Z Z" stroke-miterlimit="10"/></g><g transform="translate(-350,-118) scale(1,1)"><rect fill="#ffffff" stroke="none" x="648" y="582" width="68" height="25"/></g><g transform="translate(-350,-118) scale(1,1)"><path fill="none" stroke="#000000" d="M 648 582 L 716 582 L 716 607 L 648 607 L 648 582 Z Z" stroke-miterlimit="10"/></g><g transform="translate(-350,-118) scale(1,1)"><g><path fill="none" stroke="none"/><text fill="#000000" stroke="none" font-family="Arial" font-size="13px" font-style="normal" font-weight="bold" text-decoration="none" x="658" y="602.5">Registry</text></g></g><g transform="translate(-350,-118) scale(1,1)"><rect fill="#C0C0C0" stroke="none" x="911" y="631" width="30.799999999999955" height="15" opacity="0.2"/></g><g transform="translate(-350,-118) scale(1,1)"><rect fill="#C0C0C0" stroke="none" x="911" y="645" width="77" height="25" opacity="0.2"/></g><g transform="translate(-350,-118) scale(1,1)"><rect fill="#ffffff" stroke="none" x="904" y="639" width="77" height="24"/></g><g transform="translate(-350,-118) scale(1,1)"><path fill="none" stroke="#000000" d="M 904 639 L 981 639 L 981 663 L 904 663 L 904 639 Z Z" stroke-miterlimit="10"/></g><g transform="translate(-350,-118) scale(1,1)"><rect fill="#ffffff" stroke="none" x="904" y="624" width="30.799999999999955" height="15"/></g><g transform="translate(-350,-118) scale(1,1)"><path fill="none" stroke="#000000" d="M 904 624 L 934.8 624 L 934.8 639 L 904 639 L 904 624 Z Z" stroke-miterlimit="10"/></g><g transform="translate(-350,-118) scale(1,1)"><rect fill="#ffffff" stroke="none" x="904" y="638" width="77" height="25"/></g><g transform="translate(-350,-118) scale(1,1)"><path fill="none" stroke="#000000" d="M 904 638 L 981 638 L 981 663 L 904 663 L 904 638 Z Z" stroke-miterlimit="10"/></g><g transform="translate(-350,-118) scale(1,1)"><g><path fill="none" stroke="none"/><text fill="#000000" stroke="none" font-family="Arial" font-size="13px" font-style="normal" font-weight="bold" text-decoration="none" x="912" y="658.5">Versioning</text></g></g><g transform="translate(-350,-118) scale(1,1)"><rect fill="#C0C0C0" stroke="none" x="655" y="623" width="27.200000000000045" height="15" opacity="0.2"/></g><g transform="translate(-350,-118) scale(1,1)"><rect fill="#C0C0C0" stroke="none" x="655" y="637" width="68" height="25" opacity="0.2"/></g><g transform="translate(-350,-118) scale(1,1)"><rect fill="#ffffff" stroke="none" x="648" y="631" width="68" height="24"/></g><g transform="translate(-350,-118) scale(1,1)"><path fill="none" stroke="#000000" d="M 648 631 L 716 631 L 716 655 L 648 655 L 648 631 Z Z" stroke-miterlimit="10"/></g><g transform="translate(-350,-118) scale(1,1)"><rect fill="#ffffff" stroke="none" x="648" y="616" width="27.200000000000045" height="15"/></g><g transform="translate(-350,-118) scale(1,1)"><path fill="none" stroke="#000000" d="M 648 616 L 675.2 616 L 675.2 631 L 648 631 L 648 616 Z Z" stroke-miterlimit="10"/></g><g transform="translate(-350,-118) scale(1,1)"><rect fill="#ffffff" stroke="none" x="648" y="630" width="68" height="25"/></g><g transform="translate(-350,-118) scale(1,1)"><path fill="none" stroke="#000000" d="M 648 630 L 716 630 L 716 655 L 648 655 L 648 630 Z Z" stroke-miterlimit="10"/></g><g transform="translate(-350,-118) scale(1,1)"><g><path fill="none" stroke="none"/><text fill="#000000" stroke="none" font-family="Arial" font-size="13px" font-style="normal" font-weight="bold" text-decoration="none" x="660.5" y="650.5">Plugins</text></g></g><g transform="translate(-350,-118) scale(1,1)"><rect fill="#C0C0C0" stroke="none" x="799" y="239" width="47.200000000000045" height="15" opacity="0.2"/></g><g transform="translate(-350,-118) scale(1,1)"><rect fill="#C0C0C0" stroke="none" x="799" y="253" width="118" height="40" opacity="0.2"/></g><g transform="translate(-350,-118) scale(1,1)"><rect fill="#ffffff" stroke="none" x="792" y="247" width="118" height="39"/></g><g transform="translate(-350,-118) scale(1,1)"><path fill="none" stroke="#000000" d="M 792 247 L 910 247 L 910 286 L 792 286 L 792 247 Z Z" stroke-miterlimit="10"/></g><g transform="translate(-350,-118) scale(1,1)"><rect fill="#ffffff" stroke="none" x="792" y="232" width="47.200000000000045" height="15"/></g><g transform="translate(-350,-118) scale(1,1)"><path fill="none" stroke="#000000" d="M 792 232 L 839.2 232 L 839.2 247 L 792 247 L 792 232 Z Z" stroke-miterlimit="10"/></g><g transform="translate(-350,-118) scale(1,1)"><rect fill="#ffffff" stroke="none" x="792" y="246" width="118" height="40"/></g><g transform="translate(-350,-118) scale(1,1)"><path fill="none" stroke="#000000" d="M 792 246 L 910 246 L 910 286 L 792 286 L 792 246 Z Z" stroke-miterlimit="10"/></g><g transform="translate(-350,-118) scale(1,1)"><g><path fill="none" stroke="none"/><text fill="#000000" stroke="none" font-family="Arial" font-size="13px" font-style="normal" font-weight="bold" text-decoration="none" x="835.5" y="266.5">Login</text></g></g><g transform="translate(-350,-118) scale(1,1)"><g><path fill="none" stroke="none"/><text fill="#000000" stroke="none" font-family="Arial" font-size="13px" font-style="normal" font-weight="normal" text-decoration="none" x="796.5" y="281.5">(from presentation)</text></g></g><g transform="translate(-350,-118) scale(1,1)"><rect fill="#C0C0C0" stroke="none" x="935" y="239" width="64" height="15" opacity="0.2"/></g><g transform="translate(-350,-118) scale(1,1)"><rect fill="#C0C0C0" stroke="none" x="935" y="253" width="160" height="138" opacity="0.2"/></g><g transform="translate(-350,-118) scale(1,1)"><rect fill="#ffffff" stroke="none" x="928" y="247" width="160" height="137"/></g><g transform="translate(-350,-118) scale(1,1)"><path fill="none" stroke="#000000" d="M 928 247 L 1088 247 L 1088 384 L 928 384 L 928 247 Z Z" stroke-miterlimit="10"/></g><g transform="translate(-350,-118) scale(1,1)"><rect fill="#ffffff" stroke="none" x="928" y="232" width="64" height="15"/></g><g transform="translate(-350,-118) scale(1,1)"><path fill="none" stroke="#000000" d="M 928 232 L 992 232 L 992 247 L 928 247 L 928 232 Z Z" stroke-miterlimit="10"/></g><g transform="translate(-350,-118) scale(1,1)"><rect fill="#ffffff" stroke="none" x="928" y="246" width="160" height="138"/></g><g transform="translate(-350,-118) scale(1,1)"><path fill="none" stroke="#000000" d="M 928 246 L 1088 246 L 1088 384 L 928 384 L 928 246 Z Z" stroke-miterlimit="10"/></g><g transform="translate(-350,-118) scale(1,1)"><g><path fill="none" stroke="none"/><text fill="#000000" stroke="none" font-family="Arial" font-size="13px" font-style="normal" font-weight="bold" text-decoration="none" x="984.5" y="266.5">Browser</text></g></g><g transform="translate(-350,-118) scale(1,1)"><g><path fill="none" stroke="none"/><text fill="#000000" stroke="none" font-family="Arial" font-size="13px" font-style="normal" font-weight="normal" text-decoration="none" x="953.5" y="281.5">(from presentation)</text></g></g><g transform="translate(-350,-118) scale(1,1)"><rect fill="#C0C0C0" stroke="none" x="1103" y="241" width="47.200000000000045" height="15" opacity="0.2"/></g><g transform="translate(-350,-118) scale(1,1)"><rect fill="#C0C0C0" stroke="none" x="1103" y="255" width="118" height="40" opacity="0.2"/></g><g transform="translate(-350,-118) scale(1,1)"><rect fill="#ffffff" stroke="none" x="1096" y="249" width="118" height="39"/></g><g transform="translate(-350,-118) scale(1,1)"><path fill="none" stroke="#000000" d="M 1096 249 L 1214 249 L 1214 288 L 1096 288 L 1096 249 Z Z" stroke-miterlimit="10"/></g><g transform="translate(-350,-118) scale(1,1)"><rect fill="#ffffff" stroke="none" x="1096" y="234" width="47.200000000000045" height="15"/></g><g transform="translate(-350,-118) scale(1,1)"><path fill="none" stroke="#000000" d="M 1096 234 L 1143.2 234 L 1143.2 249 L 1096 249 L 1096 234 Z Z" stroke-miterlimit="10"/></g><g transform="translate(-350,-118) scale(1,1)"><rect fill="#ffffff" stroke="none" x="1096" y="248" width="118" height="40"/></g><g transform="translate(-350,-118) scale(1,1)"><path fill="none" stroke="#000000" d="M 1096 248 L 1214 248 L 1214 288 L 1096 288 L 1096 248 Z Z" stroke-miterlimit="10"/></g><g transform="translate(-350,-118) scale(1,1)"><g><path fill="none" stroke="none"/><text fill="#000000" stroke="none" font-family="Arial" font-size="13px" font-style="normal" font-weight="bold" text-decoration="none" x="1119" y="268.5">Notifications</text></g></g><g transform="translate(-350,-118) scale(1,1)"><g><path fill="none" stroke="none"/><text fill="#000000" stroke="none" font-family="Arial" font-size="13px" font-style="normal" font-weight="normal" text-decoration="none" x="1100.5" y="283.5">(from presentation)</text></g></g><g transform="translate(-350,-118) scale(1,1)"><rect fill="#C0C0C0" stroke="none" x="982" y="309" width="37.60000000000002" height="15" opacity="0.2"/></g><g transform="translate(-350,-118) scale(1,1)"><rect fill="#C0C0C0" stroke="none" x="982" y="323" width="94" height="40" opacity="0.2"/></g><g transform="translate(-350,-118) scale(1,1)"><rect fill="#ffffff" stroke="none" x="975" y="317" width="94" height="39"/></g><g transform="translate(-350,-118) scale(1,1)"><path fill="none" stroke="#000000" d="M 975 317 L 1069 317 L 1069 356 L 975 356 L 975 317 Z Z" stroke-miterlimit="10"/></g><g transform="translate(-350,-118) scale(1,1)"><rect fill="#ffffff" stroke="none" x="975" y="302" width="37.60000000000002" height="15"/></g><g transform="translate(-350,-118) scale(1,1)"><path fill="none" stroke="#000000" d="M 975 302 L 1012.6 302 L 1012.6 317 L 975 317 L 975 302 Z Z" stroke-miterlimit="10"/></g><g transform="translate(-350,-118) scale(1,1)"><rect fill="#ffffff" stroke="none" x="975" y="316" width="94" height="40"/></g><g transform="translate(-350,-118) scale(1,1)"><path fill="none" stroke="#000000" d="M 975 316 L 1069 316 L 1069 356 L 975 356 L 975 316 Z Z" stroke-miterlimit="10"/></g><g transform="translate(-350,-118) scale(1,1)"><g><path fill="none" stroke="none"/><text fill="#000000" stroke="none" font-family="Arial" font-size="13px" font-style="normal" font-weight="bold" text-decoration="none" x="1001.5" y="336.5">Search</text></g></g><g transform="translate(-350,-118) scale(1,1)"><g><path fill="none" stroke="none"/><text fill="#000000" stroke="none" font-family="Arial" font-size="13px" font-style="normal" font-weight="normal" text-decoration="none" x="979.5" y="351.5">(from Browser)</text></g></g><g transform="translate(-350,-118) scale(1,1)"><path fill="none" stroke="#000000" d="M 993 384 L 993 498" stroke-miterlimit="10" stroke-dasharray="3"/></g><g transform="translate(-350,-118) scale(1,1)"><path fill="none" stroke="#000000" d="M 988.790482243984 487.83732514237585 L 993 498 L 997.209517756016 487.83732514237585" stroke-miterlimit="10"/></g><g transform="translate(-350,-118) scale(1,1)"><path fill="none" stroke="#000000" d="M 1015 356 L 1015 573 L 995 573" stroke-miterlimit="10" stroke-dasharray="3"/></g><g transform="translate(-350,-118) scale(1,1)"><path fill="none" stroke="#000000" d="M 1005.1626748576241 568.790482243984 L 995 573 L 1005.1626748576241 577.209517756016" stroke-miterlimit="10"/></g><g transform="translate(-350,-118) scale(1,1)"><path fill="none" stroke="#000000" d="M 850 286 L 850 498" stroke-miterlimit="10" stroke-dasharray="3"/></g><g transform="translate(-350,-118) scale(1,1)"><path fill="none" stroke="#000000" d="M 845.790482243984 487.83732514237585 L 850 498 L 854.209517756016 487.83732514237585" stroke-miterlimit="10"/></g><g transform="translate(-350,-118) scale(1,1)"><path fill="none" stroke="#000000" d="M 1149 288 L 1149 514" stroke-miterlimit="10" stroke-dasharray="3"/></g><g transform="translate(-350,-118) scale(1,1)"><path fill="none" stroke="#000000" d="M 1144.7904822439841 503.83732514237585 L 1149 514 L 1153.2095177560159 503.83732514237585" stroke-miterlimit="10"/></g><g transform="translate(-350,-118) scale(1,1)"><rect fill="#C0C0C0" stroke="none" x="1063" y="583" width="27.200000000000045" height="15" opacity="0.2"/></g><g transform="translate(-350,-118) scale(1,1)"><rect fill="#C0C0C0" stroke="none" x="1063" y="597" width="68" height="25" opacity="0.2"/></g><g transform="translate(-350,-118) scale(1,1)"><rect fill="#ffffff" stroke="none" x="1056" y="591" width="68" height="24"/></g><g transform="translate(-350,-118) scale(1,1)"><path fill="none" stroke="#000000" d="M 1056 591 L 1124 591 L 1124 615 L 1056 615 L 1056 591 Z Z" stroke-miterlimit="10"/></g><g transform="translate(-350,-118) scale(1,1)"><rect fill="#ffffff" stroke="none" x="1056" y="576" width="27.200000000000045" height="15"/></g><g transform="translate(-350,-118) scale(1,1)"><path fill="none" stroke="#000000" d="M 1056 576 L 1083.2 576 L 1083.2 591 L 1056 591 L 1056 576 Z Z" stroke-miterlimit="10"/></g><g transform="translate(-350,-118) scale(1,1)"><rect fill="#ffffff" stroke="none" x="1056" y="590" width="68" height="25"/></g><g transform="translate(-350,-118) scale(1,1)"><path fill="none" stroke="#000000" d="M 1056 590 L 1124 590 L 1124 615 L 1056 615 L 1056 590 Z Z" stroke-miterlimit="10"/></g><g transform="translate(-350,-118) scale(1,1)"><g><path fill="none" stroke="none"/><text fill="#000000" stroke="none" font-family="Arial" font-size="13px" font-style="normal" font-weight="bold" text-decoration="none" x="1065" y="610.5">Emailing</text></g></g><g transform="translate(-350,-118) scale(1,1)"><rect fill="#C0C0C0" stroke="none" x="1231" y="583" width="27.200000000000045" height="15" opacity="0.2"/></g><g transform="translate(-350,-118) scale(1,1)"><rect fill="#C0C0C0" stroke="none" x="1231" y="597" width="68" height="25" opacity="0.2"/></g><g transform="translate(-350,-118) scale(1,1)"><rect fill="#ffffff" stroke="none" x="1224" y="591" width="68" height="24"/></g><g transform="translate(-350,-118) scale(1,1)"><path fill="none" stroke="#000000" d="M 1224 591 L 1292 591 L 1292 615 L 1224 615 L 1224 591 Z Z" stroke-miterlimit="10"/></g><g transform="translate(-350,-118) scale(1,1)"><rect fill="#ffffff" stroke="none" x="1224" y="576" width="27.200000000000045" height="15"/></g><g transform="translate(-350,-118) scale(1,1)"><path fill="none" stroke="#000000" d="M 1224 576 L 1251.2 576 L 1251.2 591 L 1224 591 L 1224 576 Z Z" stroke-miterlimit="10"/></g><g transform="translate(-350,-118) scale(1,1)"><rect fill="#ffffff" stroke="none" x="1224" y="590" width="68" height="25"/></g><g transform="translate(-350,-118) scale(1,1)"><path fill="none" stroke="#000000" d="M 1224 590 L 1292 590 L 1292 615 L 1224 615 L 1224 590 Z Z" stroke-miterlimit="10"/></g><g transform="translate(-350,-118) scale(1,1)"><g><path fill="none" stroke="none"/><text fill="#000000" stroke="none" font-family="Arial" font-size="13px" font-style="normal" font-weight="bold" text-decoration="none" x="1246" y="610.5">Mail</text></g></g><g transform="translate(-350,-118) scale(1,1)"><path fill="none" stroke="#000000" d="M 1125 595 L 1223 595" stroke-miterlimit="10" stroke-dasharray="3"/></g><g transform="translate(-350,-118) scale(1,1)"><path fill="none" stroke="#000000" d="M 1212.837325142376 599.209517756016 L 1223 595 L 1212.837325142376 590.790482243984" stroke-miterlimit="10"/></g><g transform="translate(-350,-118) scale(1,1)"><rect fill="#C0C0C0" stroke="none" x="759" y="639" width="41.60000000000002" height="15" opacity="0.2"/></g><g transform="translate(-350,-118) scale(1,1)"><rect fill="#C0C0C0" stroke="none" x="759" y="653" width="104" height="25" opacity="0.2"/></g><g transform="translate(-350,-118) scale(1,1)"><rect fill="#ffffff" stroke="none" x="752" y="647" width="104" height="24"/></g><g transform="translate(-350,-118) scale(1,1)"><path fill="none" stroke="#000000" d="M 752 647 L 856 647 L 856 671 L 752 671 L 752 647 Z Z" stroke-miterlimit="10"/></g><g transform="translate(-350,-118) scale(1,1)"><rect fill="#ffffff" stroke="none" x="752" y="632" width="41.60000000000002" height="15"/></g><g transform="translate(-350,-118) scale(1,1)"><path fill="none" stroke="#000000" d="M 752 632 L 793.6 632 L 793.6 647 L 752 647 L 752 632 Z Z" stroke-miterlimit="10"/></g><g transform="translate(-350,-118) scale(1,1)"><rect fill="#ffffff" stroke="none" x="752" y="646" width="104" height="25"/></g><g transform="translate(-350,-118) scale(1,1)"><path fill="none" stroke="#000000" d="M 752 646 L 856 646 L 856 671 L 752 671 L 752 646 Z Z" stroke-miterlimit="10"/></g><g transform="translate(-350,-118) scale(1,1)"><g><path fill="none" stroke="none"/><text fill="#000000" stroke="none" font-family="Arial" font-size="13px" font-style="normal" font-weight="bold" text-decoration="none" x="766.5" y="666.5">Management</text></g></g></g></svg>